<svg width="47" height="31" xmlns="http://www.w3.org/2000/svg" xmlns:xlink="http://www.w3.org/1999/xlink" xmlns:svgjs="http://svgjs.com/svgjs" viewBox="0 0.46 47 30.08" fill="#fff"><svg xmlns="http://www.w3.org/2000/svg" width="47" height="31" viewBox="1.5 1.6 45 28.8"><path paint-order="stroke fill markers" fill-rule="evenodd" d="M25.196 11.238a.924.924 0 0 0-1.053.413l-3.893 6.378-3.893-6.378a.927.927 0 0 0-1.053-.413.953.953 0 0 0-.68.922v6.72h-.203l-1.7-6.953a.941.941 0 0 0-.909-.727H9.937a.942.942 0 0 0-.84.53l-3.75 7.68a.973.973 0 0 0 .42 1.288.93.93 0 0 0 .42.102.94.94 0 0 0 .84-.53l3.49-7.15h.562l1.7 6.952c.102.428.48.728.908.728h1.875a.95.95 0 0 0 .938-.96v-4.334l2.955 4.843c.341.56 1.249.56 1.59 0L24 15.506v4.334c0 .53.42.96.937.96a.95.95 0 0 0 .938-.96v-7.68a.953.953 0 0 0-.679-.922zM39.388 16l3.086-3.163a.977.977 0 0 0 0-1.357.923.923 0 0 0-1.325 0l-3.087 3.16-3.086-3.16a.933.933 0 0 0-.664-.28h-5.625a.95.95 0 0 0-.937.96v7.68c0 .53.42.96.937.96h5.625c.25 0 .488-.102.664-.282l3.086-3.16 3.087 3.162a.918.918 0 0 0 1.326-.002.977.977 0 0 0 0-1.358L39.387 16zm-5.464 2.88h-4.3v-5.76h4.3L36.737 16l-2.813 2.88zM31.5 15.04h-2.813a.95.95 0 0 0-.937.96c0 .53.42.96.937.96H31.5a.95.95 0 0 0 .937-.96.95.95 0 0 0-.937-.96zm-18.75 1.92H8.062a.95.95 0 0 0-.937.96c0 .53.42.96.937.96h4.688a.95.95 0 0 0 .937-.96.95.95 0 0 0-.937-.96zM39.937 1.6H8.062C4.444 1.6 1.5 4.614 1.5 8.32v15.36c0 3.705 2.944 6.72 6.562 6.72h31.875c3.62 0 6.563-3.015 6.563-6.72V8.32c0-3.706-2.944-6.72-6.563-6.72zm4.688 22.08c0 2.645-2.102 4.8-4.688 4.8H8.062c-2.585 0-4.687-2.155-4.687-4.8V8.32c0-2.646 2.102-4.8 4.687-4.8h31.875c2.586 0 4.688 2.154 4.688 4.8v15.36z"/></svg></svg>