<svg width="55" height="27" xmlns="http://www.w3.org/2000/svg" xmlns:xlink="http://www.w3.org/1999/xlink" xmlns:svgjs="http://svgjs.com/svgjs" viewBox="0 0.88 55 25.241" fill="#fff"><svg xmlns="http://www.w3.org/2000/svg" width="55" height="27" viewBox="1.541 1.856 52.918 24.285"><path paint-order="stroke fill markers" fill-rule="evenodd" d="M40.954 3.287V2.06h-4.055v7.226h4.055V8.064h-2.626V6.113h2.53V4.89h-2.53V3.287h2.626zm3.997 2.958c1.076-.216 1.67-.941 1.67-2.048 0-1.353-.946-2.134-2.595-2.134h-2.121V9.29h1.43V6.386h.185l1.978 2.903h1.762L44.95 6.245zm-1.2-.856h-.417l.001-2.187h.44c.891 0 1.375.367 1.375 1.07 0 .727-.486 1.117-1.4 1.117zm3.507-3.47a.556.556 0 0 0-.564.553c0 .308.251.554.564.554a.557.557 0 0 0 .554-.554.558.558 0 0 0-.554-.553zm-.006 1.008a.451.451 0 0 1-.445-.454c0-.25.201-.454.445-.454s.446.205.446.454a.45.45 0 0 1-.446.454zm.077-.397c.09-.024.14-.09.14-.178 0-.128-.088-.196-.245-.196h-.207v.635h.153v-.247l.181.247h.188l-.21-.261zm-.133-.093h-.025v-.165h.027c.076 0 .115.027.115.082 0 .057-.041.083-.117.083zM8.24 2.061h1.43v7.226H8.24V2.06zm4.922 2.772c-.86-.312-1.112-.52-1.112-.91 0-.455.45-.8 1.067-.8.427 0 .78.173 1.153.586l.749-.967a3.244 3.244 0 0 0-2.156-.8c-1.298 0-2.284.887-2.284 2.069 0 .995.459 1.505 1.802 1.981.56.195.845.324.989.411.287.184.429.445.429.748 0 .585-.472 1.02-1.11 1.02-.681 0-1.233-.337-1.56-.964l-.926.877c.66.954 1.45 1.377 2.538 1.377 1.487 0 2.53-.975 2.53-2.373 0-1.148-.484-1.67-2.109-2.255zm2.373 21.308h38.924V12.305s-13.746 9.557-38.924 13.836zM3.638 2.063H1.54V9.29h2.09c1.107 0 1.908-.26 2.614-.836a3.598 3.598 0 0 0 1.33-2.772c0-2.134-1.617-3.62-3.937-3.618zm1.67 5.426c-.447.4-1.031.575-1.954.575H2.97V3.285h.384c.922 0 1.482.164 1.955.585.495.433.793 1.105.793 1.798 0 .696-.297 1.388-.793 1.821zm29.396-5.426l-1.982 4.853-1.955-4.853h-1.563l3.113 7.408h.767l3.168-7.408h-1.548zm-8.954-.207a3.901 3.901 0 0 0-3.593 2.347c-.199.46-.306.966-.306 1.496 0 2.122 1.746 3.843 3.9 3.843 1.75 0 3.234-1.136 3.724-2.7.023-.067.036-.135.056-.2.013-.057.03-.113.041-.168.054-.25.08-.51.08-.777 0-2.12-1.746-3.841-3.902-3.841zm-6.16 1.33c.684 0 1.202.241 1.794.814V2.343c-.627-.315-1.144-.444-1.759-.444-2.166 0-3.903 1.68-3.903 3.781-.002 2.122 1.69 3.768 3.868 3.768.617 0 1.144-.118 1.793-.421v-1.66c-.572.565-1.078.793-1.726.793-1.44 0-2.461-1.03-2.461-2.492 0-1.385 1.054-2.481 2.395-2.481z"/></svg></svg>