<svg width="43" height="27" xmlns="http://www.w3.org/2000/svg" xmlns:xlink="http://www.w3.org/1999/xlink" xmlns:svgjs="http://svgjs.com/svgjs" viewBox="0 0.17 43 26.66" fill="#fff"><svg xmlns="http://www.w3.org/2000/svg" width="43" height="27" viewBox="2 1.98 42 26.04"><path paint-order="stroke fill markers" fill-rule="evenodd" d="M30.908 1.98c-2.87 0-5.64.933-7.908 2.644a13.115 13.115 0 0 0-7.908-2.644C7.873 1.98 2 7.82 2 15c0 7.179 5.873 13.02 13.092 13.02 2.87 0 5.64-.933 7.908-2.645a13.114 13.114 0 0 0 7.908 2.645C38.127 28.02 44 22.179 44 15c0-7.18-5.873-13.02-13.092-13.02zM23 7.937c.405.449.772.933 1.096 1.443h-2.192c.323-.51.69-.994 1.096-1.443zm-2.236 3.89h4.472c.2.635.34 1.287.417 1.95h-5.306c.077-.663.216-1.314.417-1.95zm-.417 4.397h5.306a10.415 10.415 0 0 1-.417 1.948h-4.472a10.415 10.415 0 0 1-.417-1.948zM23 22.064c-.406-.45-.773-.934-1.096-1.445h2.192c-.324.51-.69.995-1.096 1.444zm7.908 3.509c-2.182 0-4.292-.664-6.064-1.889a13.085 13.085 0 0 0 2.4-3.832c.624-1.544.94-3.177.94-4.852 0-1.676-.316-3.308-.94-4.852a13.09 13.09 0 0 0-2.4-3.833 10.651 10.651 0 0 1 6.064-1.888C36.77 4.427 41.539 9.17 41.539 15s-4.77 10.573-10.631 10.573z"/></svg></svg>