<?xml version="1.0" standalone="no"?>
<!DOCTYPE svg PUBLIC "-//W3C//DTD SVG 1.1//EN" "http://www.w3.org/Graphics/SVG/1.1/DTD/svg11.dtd" >
<svg xmlns="http://www.w3.org/2000/svg" xmlns:xlink="http://www.w3.org/1999/xlink" version="1.1">
<metadata>
Created by FontForge 20170924 at Tue Mar 31 08:32:57 2020
 By root
Copyright (c) 2020, Kokostd

C O N T A C T

anggarsetioko@gmail.com
</metadata>
<defs>
<font id="Catatan" horiz-adv-x="445" >
  <font-face 
    font-family="Catatan"
    font-weight="400"
    font-stretch="normal"
    units-per-em="1000"
    panose-1="2 0 5 3 0 0 0 0 0 0"
    ascent="700"
    descent="-300"
    x-height="263"
    cap-height="596"
    bbox="37.6 -295.328 646.042 641"
    underline-thickness="49"
    underline-position="-147"
    unicode-range="U+0020-007A"
  />
    <missing-glyph />
    <glyph glyph-name="space" unicode=" " horiz-adv-x="350" 
 />
    <glyph glyph-name="A" unicode="A" horiz-adv-x="551" 
d="M330 629q-18 1 -36.5 -12.5t-31 -29.5t-27.5 -43.5t-20.5 -40.5t-14.5 -34q-39 -89 -63 -190q-39 10 -54 31q-7 9 -19.5 7.5t-17.5 -10t1 -19.5q24 -33 83 -45q-24 -125 -6 -248q1 -12 14 -13.5t21 4.5q5 5 8.5 10t6.5 12t4 10.5t3.5 13t3.5 13.5l24 81t24 82q1 3 3.5 10
t3.5 10q74 -7 178 -4q1 -4 2 -12t1 -12q8 -60 14 -125q0 -5 0.5 -21.5t2.5 -27.5t7 -20q5 -10 18 -10l8 2q6 0 11.5 4.5t7.5 11.5l1 2.5t1 3.5q5 16 -14 23v10q1 5 -0.5 16.5t-1.5 13.5q-1 18 -10 83q-1 10 -3.5 30t-4.5 30h3q13 1 18 11.5t0 20t-18 8.5h-8q-2 11 -5 32.5
t-5 32.5q-3 18 -7 66t-8.5 80.5t-17.5 70.5t-34 58q-24 23 -46 23zM330 574q23 0 37 -45q7 -28 19 -105q4 -27 12.5 -80t13.5 -79q-41 -2 -124 1q-4 0 -17 1t-21 1l75 253q3 12 -6 20t-20 6t-14 -14q-13 -44 -38.5 -132t-38.5 -132q-12 0 -31 4q13 62 49 155q62 146 104 146
zM170 236q4 0 10 -0.5t8 -0.5t5 -1t5 -1q-4 -15 -13.5 -44t-13.5 -44q-3 -9 -7 -32.5t-7 -34.5q-3 75 13 158z" />
    <glyph glyph-name="B" unicode="B" horiz-adv-x="616" 
d="M251 641q-76 0 -124 -24q-30 -13 -51 -40.5t-27 -57t8.5 -58t49.5 -43.5q12 -5 21.5 2t9.5 17t-11 16q-33 15 -43 33.5t-1 35t27 31.5t37 24.5t32 12.5q44 10 87 8q67 -3 99 -40t11 -103q-14 -41 -67 -77q-10 1 -28 3.5t-24 2.5q-1 10 -3.5 30.5t-2.5 30.5q-3 18 -21 20
q-17 1 -19 -15v-5q1 -9 2.5 -28.5t1.5 -28.5q-8 1 -27.5 2t-29.5 2q-3 1 -23.5 3t-31.5 2.5t-25.5 -4t-21.5 -14.5q-19 -30 18 -61q26 -21 67 -26t82 4q2 -42 2 -86q-79 9 -114 -27q-28 -31 -15 -66t41.5 -63t58.5 -40q3 -1 23 -6v-8q-1 -12 9 -17t21 0q13 9 17 15
q59 -8 117 5t99 47q32 26 52.5 65.5t21.5 82.5t-24 80q-45 62 -162 89q27 28 43 67.5t14 82t-26 72.5q-43 52 -150 52zM121 353q14 0 40 -3t27 -3q5 -1 15.5 -1t15.5 -1v-6q-56 -13 -94 -1q-37 13 -4 15zM317 331q23 -4 38.5 -7.5t39.5 -10.5t40 -14.5t34 -19.5t27.5 -26
t14.5 -33.5t1 -43.5q-11 -60 -59.5 -95t-111.5 -41q-48 -4 -79 0q4 77 4 117q62 -16 86 -29q11 -6 21 1t9.5 17t-10.5 17q-48 26 -106 39q0 36 -4 106q23 7 55 23zM189 166h17q13 0 19 -1q0 -59 -2 -117q-61 17 -76 58q-20 57 42 60z" />
    <glyph glyph-name="C" unicode="C" horiz-adv-x="519" 
d="M308 617q-26 0 -53 -13q-96 -50 -157 -226q-11 -30 -19 -59.5t-15 -67.5t-6.5 -72t7 -66.5t26 -58t50.5 -40.5q39 -19 78 -16t74 18t67 42.5t57 58t44 63.5q7 11 0.5 21t-16.5 10.5t-18 -9.5q-15 -27 -33.5 -51t-43.5 -48t-51 -38t-56.5 -20.5t-61.5 3.5q-30 8 -49 26.5
t-25.5 45.5t-8 53.5t4.5 61t11.5 57.5t14.5 53q26 89 77 157q21 30 39 45q32 26 60.5 27.5t44.5 -17.5t22 -51t-9 -72q-3 -12 5.5 -19.5t20.5 -5.5t15 14q7 32 9.5 55t-2.5 52.5t-22 49.5q-30 37 -81 37z" />
    <glyph glyph-name="D" unicode="D" horiz-adv-x="587" 
d="M271 580q-33 0 -78 -13q-49 -16 -85 -51.5t-25 -79.5q11 -48 56.5 -62.5t82.5 12.5q10 7 9 19t-10 17t-20 -1q-37 -17 -55.5 -7t-17.5 37t21 45q10 10 28 20q44 25 96 25q46 0 91 -21t74 -56q34 -38 46 -87.5t5 -97.5t-29 -96q-26 -59 -72 -98t-105 -47q0 97 8 192
q11 -16 16 -30q3 -12 14.5 -14t20 6t5.5 20q-11 42 -52 66q6 52 22 150q2 11 -6 19t-18.5 5.5t-13.5 -15.5q-17 -99 -22 -145q-56 12 -114.5 -13.5t-78.5 -74.5q-17 -47 -9 -83.5t36.5 -62.5t67 -40.5t81.5 -17.5q0 -17 19 -19.5t24 14.5v2.5v2.5q36 3 61 12
q86 32 136 118.5t52 183.5q2 72 -34.5 133.5t-97 97t-129.5 35.5zM222 255q10 0 30 -4q-12 -134 -12 -215q-47 5 -91.5 36t-55 73t44.5 85q35 25 84 25z" />
    <glyph glyph-name="E" unicode="E" horiz-adv-x="656" 
d="M338 554q-46 3 -108.5 -31t-91.5 -70q-13 -17 -22.5 -33.5t-14.5 -35.5t3 -34.5t30 -25.5q22 -9 58 -12q-32 -18 -57.5 -37t-46 -43t-30 -49t-6.5 -55t20 -60q29 -47 83 -61.5t111.5 -3.5t124 39t113 54.5t86.5 52.5q10 8 8.5 20.5t-10.5 17.5t-20 -1q-103 -69 -198 -106
q-49 -19 -107 -29q-23 -4 -35.5 -5.5t-32 0t-34.5 9.5q-32 16 -49 45q-35 55 18 113q22 28 74 61q46 32 102 50q24 5 62 14.5t46 10.5q10 3 13 13.5t-2.5 19.5t-16.5 8q-1 0 -2 -1t-2 -1v2q-1 0 -3 -1t-3 -1q-7 -1 -43 -9q-44 -9 -100 -15q-5 0 -16 -2t-19.5 -2.5t-20 -1.5
t-19.5 1t-15.5 5.5t-11.5 11t-4 18.5q1 39 65 78q66 40 112 32q35 -5 31 -41q-2 -18 14 -20q19 -3 26 13q1 3 1 7q9 88 -60 91z" />
    <glyph glyph-name="F" unicode="F" horiz-adv-x="606" 
d="M190 602q-12 0 -17 -14q-1 -2 -1.5 -5.5t-1.5 -5.5q-6 -1 -46 -7t-61 -9q-12 -3 -14.5 -13.5t5.5 -19.5t21 -6q42 8 84 14q-9 -32 -42 -163q-8 -1 -26 -3.5t-26 -3.5q-19 -2 -15 -21q3 -18 22 -18q1 0 3 1q5 1 16 1.5t16 1.5q-10 -47 -23 -140q-1 -7 -3.5 -25.5t-4 -28.5
t-2.5 -28t0 -29.5t4.5 -26.5t10 -24t17.5 -18t26 -13q12 -3 19.5 6t5.5 20t-14 14q-24 7 -29 54t4 107.5t27 136.5q113 11 238 11q13 0 18 11t0 21.5t-18 10.5q-87 0 -226 -12q23 95 45 163q179 21 343 16q13 0 18 10t0 20.5t-18 10.5q-164 5 -331 -16q0 9 -7.5 14.5
t-16.5 5.5z" />
    <glyph glyph-name="G" unicode="G" horiz-adv-x="544" 
d="M327 619q-24 0 -58 -17q-48 -26 -85 -67t-61 -91.5t-38.5 -101t-22.5 -106.5q-32 -238 124 -236q33 1 65 15t61 40.5t51.5 53.5t48.5 64q-13 -62 -18 -118q0 -2 -3 -27.5t-3 -36t1 -30.5t7 -33t17 -22q7 -4 16 -1.5t13 9.5q1 0 1 2.5t1 3.5q4 6 2 15t-9 13q-1 0 -1.5 1
t-1.5 1h-5q-10 30 16 185q12 71 50 165q8 17 -9 23t-28 -7q-15 -21 -47 -68.5t-58.5 -82.5t-53.5 -63q-37 -37 -58 -47q-34 -20 -77 -8t-61 49q-3 6 -5 14t-3 17.5t-1 18.5t1 21.5t2 20.5t2.5 21t2.5 18.5l3 16.5t2 12q24 143 90 230q29 37 55.5 56t62.5 15q11 -1 17.5 -1.5
t11.5 -3l7 -3.5t4 -6t2.5 -8t1.5 -12.5t1 -14.5q5 -33 2 -74q-1 -13 9 -18t21 0t12 18q3 28 0 60t-10 59.5t-24.5 46.5t-42.5 19z" />
    <glyph glyph-name="H" unicode="H" horiz-adv-x="547" 
d="M250 602q-12 0 -15 -14q-36 -218 -45 -278q-70 9 -116 29q-18 7 -29 -10q-10 -18 7 -27q65 -28 133 -36q-9 -69 -13.5 -133.5t-3.5 -126.5q0 -11 8.5 -17t18.5 -4q11 1 16 5t10 14q8 19 -10 29q0 105 16 230q80 -3 148 31q2 1 24 16q-2 -10 -6 -31.5t-6 -30.5
q-8 -47 -10 -63t-5.5 -53t0.5 -64.5t13 -55.5q5 -15 21 -15t21 15q1 5 5.5 15.5t5.5 15.5q5 12 -2.5 19.5t-18.5 5.5q-3 21 -3 45t1.5 42.5t6 45.5t7.5 42.5t9 43.5q1 9 2 13q3 11 7 35t7 36q27 41 40 86t6 80q-3 13 -12 16q-6 10 -20 9t-18 -15q-6 -25 -17.5 -78t-17.5 -78
q-30 -54 -92 -71q-49 -14 -89 -14l21 135t20 135q3 12 -5.5 20t-19.5 6zM184 26z" />
    <glyph glyph-name="I" unicode="I" horiz-adv-x="191" 
d="M96 596q-8 0 -14.5 -5.5t-4.5 -14.5q5 -76 5 -153t-2 -122t-8 -142.5t-9 -142.5q-1 -13 9 -18t21 0t11 18l9.5 142.5t8.5 142.5t1.5 122t-5.5 153q-3 20 -22 20z" />
    <glyph glyph-name="J" unicode="J" horiz-adv-x="532" 
d="M476 596h-9q-63 -25 -76 -29q-7 -2 -20 -6t-20 -6q-4 -1 -26 -1.5t-26 -4.5q14 13 -1 28t-29 2q-20 -23 -7 -45t41 -25q32 -2 74 9q-30 -265 -56 -420q-4 -23 -13.5 -37t-24 -16t-28.5 -0.5t-33 11.5t-32 17.5t-30 19.5q-16 11 -32 25.5t-30 34t-2.5 33t52.5 16.5
q13 0 18 11t0 21t-18 9q-46 -3 -76 -27.5t-18 -67.5q6 -20 21.5 -39t31 -32t42 -27.5t40 -20.5t39.5 -17q33 -13 56 -14t39.5 13t25.5 36t14 56q23 141 56 430q34 14 58 22q16 6 14.5 22.5t-15.5 18.5z" />
    <glyph glyph-name="K" unicode="K" horiz-adv-x="628" 
d="M201 586q-14 0 -17 -15q-9 -53 -33.5 -168.5t-34.5 -176.5q-20 5 -25 35q-3 13 -14 15t-20.5 -6t-7.5 -21q11 -55 60 -65q-20 -141 -12 -246q1 -13 12 -18.5t21.5 0t9.5 18.5q-9 119 12 248q49 12 95 45q2 1 12 3.5t13 3.5t11.5 3t12 1.5t11 0t11.5 -1t10 -3.5t10.5 -6
t8.5 -9q14 -15 32 -51.5t25 -48.5q60 -86 138 -119q12 -6 22.5 1.5t10 18t-11.5 17.5q-36 16 -64.5 42.5t-43.5 49.5t-38 62.5t-38 61.5q-21 33 -63 33q26 26 73 79t88 92.5t85 65.5q11 8 10 20.5t-10.5 17.5t-21.5 -1q-21 -12 -40 -26.5t-40 -34.5t-32 -31.5t-36.5 -39
t-32.5 -34.5q-18 -20 -44 -46t-73.5 -65.5t-80.5 -53.5q10 55 33 164t32 162q2 12 -6.5 20t-18.5 7z" />
    <glyph glyph-name="L" unicode="L" horiz-adv-x="526" 
d="M154 609q-6 0 -11 -4.5t-6 -12.5q-8 -57 -26 -172t-26 -172q-2 -14 -10 -49.5t-14 -62.5t-6 -58.5t11 -49.5q13 -24 41 -28t50 8q38 15 91 46.5t101 53.5t99 25q13 1 18.5 12.5t0 22.5t-18.5 10q-80 -6 -141 -35q-15 -7 -30.5 -15.5t-33.5 -20t-29 -17.5q-19 -12 -47 -27
q-13 -7 -23.5 -9.5t-17 0.5t-11 8t-6.5 14t-3 17t-0.5 20t1.5 19.5t2 19t2 14.5q3 33 16 89.5t15 67.5q7 43 19.5 128.5t19.5 128.5q2 12 -7.5 21.5t-19.5 7.5z" />
    <glyph glyph-name="M" unicode="M" horiz-adv-x="583" 
d="M452 589h-3q-9 0 -15 -12q-96 -163 -175 -286v9q-1 30 -3 46.5t-11 40.5t-26 44q-9 10 -21.5 6t-16.5 -16q-17 -47 -58 -184t-72 -209q-9 -20 11 -32q19 -10 29 8q22 52 41.5 110t41 132t34.5 111q6 -22 7 -71t5 -68q4 -15 19.5 -16t23.5 11q78 122 184 298q6 -25 9 -56
t3.5 -51.5t1 -59.5t1.5 -54q0 -45 2 -134t3 -134q0 -14 11 -20t22.5 0t11.5 20l-5 301q-1 8 -1.5 41t-0.5 44.5t-2 39.5t-5 44t-9 38.5t-14 41.5q-3 7 -10 12t-13 5z" />
    <glyph glyph-name="N" unicode="N" 
d="M343 590q-9 2 -17.5 -5.5t-5.5 -18.5q12 -71 12 -155.5t-3.5 -178.5t-0.5 -156q-11 20 -18 47t-12.5 58.5t-7.5 39.5q-21 89 -44 167q-20 64 -49 108.5t-79 69.5q-10 4 -18.5 0t-10.5 -12q-10 -6 -10 -17q-6 -102 -9 -304q-1 -11 -3.5 -59t-2 -71t7 -58.5t21.5 -59.5
q8 -11 18.5 -11t17.5 9.5t1 20.5q-14 24 -19.5 62t-5 67t3.5 76.5t3 61.5q0 24 1 77t2 93t3 77q27 -20 47.5 -48.5t34.5 -67t22 -66.5t18 -75.5t15 -66.5q3 -12 8.5 -39.5t10 -44.5t12.5 -39t21 -37.5t31 -25.5q8 -8 19 -8q11 -1 16 10t0 22q-7 75 -3 272t-12 273
q-3 13 -15 13z" />
    <glyph glyph-name="O" unicode="O" horiz-adv-x="406" 
d="M227 592h-12q-12 0 -30 -6q-11 -5 -20.5 -12.5t-16.5 -14.5t-14 -19.5t-10.5 -20t-8.5 -22.5t-7 -21.5t-6 -23t-5 -19.5q-36 -142 -39 -262q-1 -54 9.5 -93.5t47.5 -63.5q30 -19 64.5 -17.5t64.5 21.5q24 17 42.5 47.5t25.5 54t16 61.5q30 129 12 262q10 78 -39 119
q-29 27 -74 30zM230 559q22 0 35.5 -12t25.5 -39q10 -22 10 -53q-2 -5 -2 -9q0 -1 0.5 -3.5t0.5 -3.5v-2q-2 -13 -12 -41q-3 -8 3 -15t14 -8q5 -79 -14 -169q-16 -80 -36 -116q-4 -5 -11.5 -14.5t-10.5 -14.5q-34 -25 -64.5 -22t-53.5 28q-16 14 -16 83q-2 103 30 248
q17 69 27 96l3 6q9 20 14 29t16 18t28 12q2 0 6.5 1t6.5 1z" />
    <glyph glyph-name="P" unicode="P" horiz-adv-x="561" 
d="M262 602q-85 -1 -146.5 -47.5t-72.5 -135.5q-2 -18 15 -20q19 -2 25 16q0 2 1 4q5 48 38 83.5t79.5 49.5t95.5 13t93 -24t66 -63q33 -57 9 -116.5t-85 -75.5q-52 -13 -92 -5q1 17 2 52.5t2 52.5q15 -5 22 11t-7 26q-11 7 -14 8v47q0 13 -10 18t-20 0t-10 -18
q0 -6 -0.5 -19.5t-0.5 -19.5q-33 -1 -58.5 -21t-32 -50t14.5 -66q21 -31 64 -51q-6 -148 12 -239q3 -13 13.5 -15.5t19.5 5.5t7 20q-5 24 -7 55.5t-2 48.5t1.5 60.5t1.5 51.5q63 -11 122 12t83 73q41 87 13 149.5t-94.5 97t-145.5 32.5h-2zM248 398q0 -16 -2.5 -50.5
t-3.5 -53.5q-13 9 -21 20q-10 81 27 84z" />
    <glyph glyph-name="Q" unicode="Q" horiz-adv-x="480" 
d="M240 590q-15 0 -30 -8q-61 -32 -120 -192q-48 -141 -27 -260q4 -23 11.5 -43.5t19 -39t29.5 -31t40 -16.5q41 -7 90 30q14 -17 28.5 -30.5t33.5 -26.5t37 -19t38.5 -4t39.5 15q15 11 5 28q-9 16 -23 5q-31 -21 -66 -0.5t-64 57.5q23 25 43 57q23 35 42 78t30 93t9 94.5
t-24.5 83t-66.5 58.5q-32 71 -75 71zM235 536q20 0 33 -20q-2 -8 1 -15.5t11 -10.5h2q15 -37 18 -76q4 -55 -20 -161q-2 -11 6 -18.5t18 -5.5t13 14q7 34 11 56t7.5 52t3 57t-5.5 53q27 -27 34 -70.5t-4 -89.5t-28 -86.5t-37 -73.5q-20 -31 -39 -55q-7 10 -18 30l-7.5 17
t-12.5 32t-3 18q9 7 5.5 17.5t-13 13t-18.5 -3.5q-5 -5 -7 -11t-2.5 -12t1 -15t2.5 -13.5t4 -14t4 -11.5q10 -34 36 -74q-31 -23 -58 -16q-46 12 -65 65q-16 49 -9 135q10 141 96 261q22 32 41 32z" />
    <glyph glyph-name="R" unicode="R" horiz-adv-x="563" 
d="M238 602q-41 0 -81.5 -13.5t-69.5 -35.5q-22 -18 -32.5 -41.5t-9.5 -51t5 -50t13 -51.5q3 -10 13 -12t17.5 4t4.5 16q-9 30 -12 53.5t-0.5 49t18.5 44.5t46 31q99 41 160 2q42 -26 59.5 -82t6 -114.5t-47.5 -93.5q-2 1 -4 4t-4 4q-59 44 -90 58q-5 71 -15 159
q-3 17 -21 17q-17 1 -16 -15q0 -1 1 -2q8 -63 14 -146q-47 13 -77 -5q-30 -22 -27.5 -49.5t29.5 -50.5q34 -28 82 -38v-95v-10q-8 -108 22 -106q7 0 16 6q-2 17 1.5 86.5t0.5 113.5q47 0 88 24q38 -36 91 -115t64 -93t23 1q11 12 2 25q-8 10 -61.5 88.5t-89.5 114.5
q45 43 55.5 118t-18.5 144t-88 94q-33 13 -68 13zM150 308q12 0 47 -14q3 -43 3 -64q-1 0 -3.5 0.5t-3.5 0.5q-64 20 -67 57q3 20 24 20zM233 278q29 -14 65 -42q-1 -1 -3.5 -0.5t-3.5 -0.5q-31 -11 -55 -11q-1 5 -1 25q0 5 -1 14.5t-1 14.5z" />
    <glyph glyph-name="S" unicode="S" horiz-adv-x="404" 
d="M233 594q-38 -1 -66.5 -25t-36.5 -69q-6 -32 -1 -64t22 -67t30 -55.5t37 -57.5q3 -4 29.5 -39.5t39.5 -59.5t15 -47q4 -29 -8.5 -47.5t-34.5 -24t-43.5 -5.5t-40.5 5q-30 7 -56.5 34.5t-34 60t17.5 61.5q7 8 5 18t-9 13.5t-15 -2.5q-41 -36 -29.5 -97t54.5 -93
q30 -22 69 -31t78 0t63 38q10 12 14.5 27.5t4.5 29t-5.5 31.5t-10.5 30t-16.5 31t-18 27.5t-19.5 27t-16 22.5q-22 32 -34 51t-27 49.5t-22 57.5q-5 27 -6.5 55t14 52t45.5 30q47 8 74 -25.5t11 -78.5q-3 -9 3.5 -15t15.5 -4t12 11q24 65 -11.5 105.5t-92.5 39.5z" />
    <glyph glyph-name="T" unicode="T" horiz-adv-x="618" 
d="M297 617q-13 0 -16 -13q-1 -5 -1.5 -16t-1.5 -16q-116 -2 -222 -19q-11 -2 -13 -15.5t9 -18.5q54 -23 106 -35q11 -2 18 5.5t5 17.5t-13 12q-5 2 -15.5 4t-16.5 4q34 4 135 9q-12 -82 -18 -135.5t-9 -127t8 -138.5t36 -123q6 -17 25 -11q17 5 10 21q-24 57 -34.5 121
t-8 136t9 125.5t18.5 132.5q115 0 243 -21q17 -3 23 14q3 17 -13 21q-116 21 -246 21q0 4 1 11.5t2 10.5q1 11 -5.5 17t-15.5 6z" />
    <glyph glyph-name="U" unicode="U" horiz-adv-x="491" 
d="M154 577q-12 0 -18 -15q-53 -174 -73 -415q-4 -19 -3 -49.5t5 -59t20.5 -51t43.5 -26.5q20 -3 43 10t40 29t38.5 45t30.5 43t24 38q18 29 49 97q-3 -56 -3 -83q0 -7 -1 -25t-1 -30t2 -29t7 -27t15.5 -18t25.5 -9q13 -1 18.5 9.5t0 21.5t-18.5 12q-6 0 -8 22t0 59t6 78.5
t10 89.5t10.5 83.5t9.5 68.5q3 9 8 29.5t7 30.5q3 13 -6 21t-20.5 5.5t-14.5 -14.5q0 -1 -1 -3t-1 -3q-6 -6 -8 -12q-1 -5 -12 -63q-26 -102 -53 -169q-14 -36 -25.5 -61t-32 -63.5t-43.5 -65.5t-47 -38q-81 -40 -73 98q1 14 14 115v4q25 185 59 294q4 11 -4 18.5t-20 7.5z
" />
    <glyph glyph-name="V" unicode="V" horiz-adv-x="419" 
d="M354 604q-13 0 -19 -15q-16 -55 -33 -131.5t-33 -131.5q-6 -19 -21.5 -82.5t-32.5 -108t-43 -77.5q-52 263 -82 506q-3 19 -23 21q-18 0 -20 -15v-6q34 -272 94 -552q2 -12 13 -14.5t20 4.5q26 21 45.5 55t28.5 58.5t22 73t18 64.5q20 65 44 163t44 163q4 11 -3.5 18
t-18.5 7z" />
    <glyph glyph-name="W" unicode="W" horiz-adv-x="569" 
d="M504 590q-15 0 -20 -14q-20 -60 -45.5 -175.5t-40.5 -165.5q-1 -4 -5.5 -19t-8.5 -27.5t-10 -30.5t-12 -32t-13.5 -26.5t-15.5 -19t-16 -5.5q-7 0 -11 5.5t-5 15t-1 18t1 20t1 15.5q-1 18 -2 52t-2 52q0 19 -17.5 21.5t-23.5 -15.5q-2 -4 -10 -26t-10.5 -28.5t-9.5 -25
t-11.5 -28t-11.5 -24.5t-13.5 -27.5t-13.5 -24.5q-3 -5 -9.5 -18.5t-12 -22.5t-12.5 -17t-15.5 -7.5t-17.5 10.5q-5 14 -4.5 32t3.5 49.5t3 36.5v102t0.5 111.5t5.5 99t16 106.5q2 13 -7 21t-20.5 6t-14.5 -15q-5 -25 -9 -53.5t-6 -49.5t-3 -54.5t-1.5 -49t-1 -55
t-0.5 -51.5l-2 -185q0 -6 -1 -23t-1 -28t2.5 -25.5t9.5 -23.5q13 -17 28.5 -20t31 8t31 29t31.5 45t28.5 52t25.5 55q6 -140 47 -141q20 0 49 31q24 27 45 72t31.5 78t23.5 83q11 38 33.5 142t40.5 159q4 12 -3 19t-18 7z" />
    <glyph glyph-name="X" unicode="X" horiz-adv-x="548" 
d="M484 588q-8 0 -16 -9q-33 -55 -77.5 -110.5t-105 -123t-89.5 -102.5h-1q-67 142 -58 286q1 13 -9.5 18t-21 0t-11.5 -18q-9 -160 70 -319l2 -4q-81 -104 -118 -194q-8 -19 10 -30q17 -11 24 8q36 84 103 175q72 -152 140 -167q13 -2 21 6.5t5.5 19.5t-14.5 14
q-49 11 -124 164q33 40 94 108.5t110 128.5t84 118q7 12 0.5 21.5t-18.5 9.5z" />
    <glyph glyph-name="Y" unicode="Y" horiz-adv-x="598" 
d="M531 588q-8 0 -16 -6q-10 -9 -18.5 -22t-18.5 -34.5t-14 -27.5q-34 -52 -73 -94.5t-90.5 -75t-96.5 -30.5q-18 1 -32 25.5t-31 70.5q-9 24 -26.5 71.5t-26.5 71.5q-5 13 -17.5 15.5t-21 -6t-4.5 -20.5q10 -25 24.5 -72.5t28.5 -86.5t31 -69q36 -66 102 -52q52 10 112 54
q-102 -152 -192 -262q-9 -10 -4 -22t15.5 -14.5t19.5 6.5q105 129 187 249q50 76 86 137q13 22 25 49q9 12 37 55q1 1 1.5 1t1.5 1q12 16 21 41v2q1 1 3 1t3 1l3 2q5 5 6 13t-3 14q0 1 -1.5 1.5t-1.5 1.5q-7 11 -19 11z" />
    <glyph glyph-name="Z" unicode="Z" horiz-adv-x="700" 
d="M438 580q-46 1 -127.5 -39t-135.5 -76.5t-81 -58.5q-10 -9 -6 -20t15 -14t22 4q97 77 187 116q2 1 12.5 6.5t20 10t22.5 10t24 8t22 2.5t18.5 -5t10.5 -15q2 -6 -12 -25t-33.5 -42.5t-21.5 -25.5q-136 -188 -321 -380q-12 -12 -3 -27t25 -9q96 34 180 51t181 11.5
t181 -40.5q19 -8 26 11q7 20 -10 30l-4 2q-204 86 -486 3q137 150 198 230q53 67 100 135q2 2 16 20.5t20.5 28.5t12 26t2.5 29q-9 43 -55 43z" />
    <glyph glyph-name="a" unicode="a" horiz-adv-x="465" 
d="M349 281q-16 0 -21 -15q-1 -2 -2 -7t-2 -8q-9 3 -18 -6q-17 20 -45.5 24t-58.5 -8q-57 -20 -96 -67.5t-47 -107.5q-6 -18 -4 -43.5t20 -36.5q29 -17 90 16q73 38 138 131q-5 -30 -2 -60t11.5 -54t28.5 -41t50 -21q13 -3 21.5 7t6 21.5t-16.5 14.5q-26 4 -40 25t-16.5 48
t2 60.5t10.5 57.5t13 44q4 11 -3 18.5t-19 7.5zM248 226q26 0 33 -24q-22 -35 -55 -71q-25 -28 -45 -45q-53 -44 -67 -38q-21 9 -13 37.5t24.5 56.5t27.5 38q15 14 43.5 29.5t51.5 16.5z" />
    <glyph glyph-name="b" unicode="b" horiz-adv-x="437" 
d="M112 559q-9 0 -14.5 -4.5t-4.5 -13.5q18 -206 9 -465q-13 19 -15 49q-1 13 -11.5 18t-20 0t-8.5 -18q3 -61 48 -97t107 -26q71 11 119 73.5t55 138.5q3 29 -2 56.5t-17.5 50t-36.5 32t-57 0.5q-66 -19 -116 -110q0 134 -14 298q-2 18 -21 18zM295 316q20 -2 31 -20
t11 -38.5t-1 -37.5q-9 -90 -69 -144q-26 -22 -60.5 -30.5t-64.5 1.5q1 23 1 71q0 1 1 2t1 2q11 64 61 135q31 43 50.5 51t38.5 8z" />
    <glyph glyph-name="c" unicode="c" horiz-adv-x="351" 
d="M167 283q-19 0 -31 -5q-33 -12 -52.5 -54t-24.5 -84q-3 -18 -1.5 -40.5t6 -42t18 -35t34.5 -20.5q41 -10 88 10.5t83 54.5q10 9 6 21t-15 15t-23 -5q-16 -15 -38.5 -28t-47 -21t-43 2t-22.5 41q-5 40 6 79q3 7 9.5 19.5t8.5 15.5q15 34 40 37q9 0 9 -5q-2 -20 17 -27
t25 10q1 2 1 5q4 26 -11.5 40.5t-41.5 16.5z" />
    <glyph glyph-name="d" unicode="d" horiz-adv-x="455" 
d="M381 577q-19 0 -22 -20q-3 -52 -13.5 -146.5t-14.5 -132.5q-25 27 -74 28.5t-79 -18.5q-51 -30 -85.5 -93t-39.5 -127q-3 -38 16 -57.5t49 -17.5t60 21q43 26 77 67t68 99q-10 -120 20 -172q6 -10 18 -10h6q9 0 14.5 6.5t5.5 14.5t-5.5 14.5t-14.5 6.5q-4 0 -4 25.5
t2.5 69t6.5 94.5t8.5 106t8.5 99.5t7 80.5t4 42q1 10 -5 15t-14 5zM265 265q39 0 41 -22q0 -1 1 -2.5t1 -2.5q-30 -55 -55 -90q-16 -23 -24.5 -34t-28 -33.5t-38 -33.5t-35.5 -12q-17 0 -25 9t-7 24.5t5 32.5t12.5 35.5t15 30.5t11.5 21q33 51 59 65q7 4 27 8t40 4z" />
    <glyph glyph-name="e" unicode="e" horiz-adv-x="388" 
d="M248 294q-21 0 -49 -11q-31 -12 -61 -42t-49 -66q-5 9 -15.5 10.5t-18 -5.5t-3.5 -17q12 -25 18 -32q-13 -50 9 -90q18 -34 52 -41t71 8t69.5 36.5t52.5 43.5q8 9 4 19.5t-13 13.5t-18 -5q-53 -59 -121 -73q-39 -8 -54.5 9.5t-10.5 50.5q41 -17 89 -2t77 54
q19 25 24 56.5t-9 61.5q-14 21 -44 21zM230 251q22 0 30 -13q14 -24 -4 -48q-19 -33 -62.5 -50t-74.5 0q10 30 23 50q25 35 61 53q4 3 16 6q3 2 11 2z" />
    <glyph glyph-name="f" unicode="f" horiz-adv-x="382" 
d="M200 316q-40 -2 -77 -73q-23 -52 -41 -110h-7q-12 1 -17 -10.5t1 -19.5q1 -4 4.5 -10.5t5.5 -9.5q-31 -149 5 -267q11 -36 40 -68t65.5 -41t70.5 30q16 19 15 44.5t-8.5 43.5t-21.5 44q-71 130 -121 219l192 -25q18 -2 20 15q3 18 -14 25q-3 1 -6 1l-183 24q11 34 12 37
q10 30 30 70q11 23 25.5 28t29 -13t21.5 -56q3 -12 14 -14t20 6t7 20q-16 95 -65 108q-6 2 -17 2zM102 25q10 -18 30.5 -54.5t30.5 -55.5q1 -2 17 -27.5t22 -37.5q8 -20 8 -44t-12 -39q-13 -11 -29.5 -9t-33 21.5t-23.5 48.5q-4 11 -8 49q-11 82 -2 148z" />
    <glyph glyph-name="g" unicode="g" 
d="M372 292q-8 0 -17 -9l-6 -12t-7 -12q-7 0 -12 -4q-15 15 -38.5 20.5t-45.5 -2.5q-52 -20 -87 -78.5t-40 -118.5q-6 -19 -1 -41.5t26 -30.5q38 -13 84 21q32 23 69 75v-86q0 -19 1.5 -57.5t1.5 -58.5q0 -13 3 -36.5t3 -43t-6 -35.5q-8 -24 -34.5 -25.5t-45.5 15.5
q-25 8 -76 30t-80 31q-12 2 -20 -6.5t-6 -19.5t14 -14q81 -23 135 -50q7 -4 25 -14.5t31.5 -16.5t27.5 -7q54 -9 69 43q9 30 9.5 56.5t-3.5 61.5t-4 59q0 25 -1.5 83.5t0.5 103t11 81.5q4 8 17.5 32t20.5 37q7 11 0.5 20t-18.5 9zM264 233q14 -2 36 -29q-4 -7 2 -16
q-47 -84 -88 -121q-10 -9 -18.5 -15t-17 -8t-13.5 4.5t-6 20.5q0 26 12 56q14 38 43 73q3 3 10.5 10t11.5 10q13 13 23 15h5z" />
    <glyph glyph-name="h" unicode="h" horiz-adv-x="368" 
d="M131 584q-6 0 -11 -4t-6 -11q-28 -174 -38 -312q-1 -15 -6 -51.5t-7.5 -61t-1 -56t8.5 -55.5v-2.5v-2.5q-9 -16 4 -25.5t25 1.5q10 1 15.5 9.5t0.5 19.5q8 17 25 64t33 77t40 52l19 17q9 5 12 -5q10 -22 10 -85v-143q1 -13 11.5 -18t20.5 0t9 18q0 8 2 46.5t2 75.5
t-3.5 76.5t-17.5 62.5t-37 20q-19 -3 -35.5 -11.5t-30 -24.5t-23 -30t-20.5 -39.5t-16 -38.5t-15 -41q0 36 8.5 105.5t9.5 76.5q12 137 35 271q3 11 -5 18t-18 7z" />
    <glyph glyph-name="i" unicode="i" horiz-adv-x="191" 
d="M69 418h-4q-7 -3 -12 -11.5t-2 -15.5q13 -39 46 -55q7 -4 15.5 -1.5t13.5 10.5q4 6 2 15t-10 13q-19 9 -28 29q-6 16 -21 16zM99 255q-9 0 -15.5 -5.5t-6.5 -14.5q-4 -51 -4 -213q0 -12 9 -18q10 -8 22 -2t12 18q0 21 -0.5 55.5t-0.5 55t0.5 49.5t2.5 55q0 9 -5.5 14.5
t-13.5 5.5z" />
    <glyph glyph-name="j" unicode="j" horiz-adv-x="423" 
d="M298 418h-4q-8 -3 -12 -11.5t-2 -15.5q14 -38 47 -55q8 -4 16 -1.5t12 10.5q4 6 1.5 15t-9.5 13q-21 9 -29 29q-7 16 -20 16zM329 255q-8 0 -15 -5.5t-7 -14.5q-2 -53 -3 -118t-1 -143t-1 -119q0 -2 1.5 -22.5t1.5 -36.5t-5 -21q-9 -11 -19.5 -15t-23 -0.5t-21.5 7.5
t-22 11.5t-18 9.5q-55 26 -133 49q-12 3 -19.5 -6t-5 -20t14.5 -14q35 -10 102 -43t104 -42q53 -12 73 22q13 22 16 56.5t-1 84.5t-4 60q1 32 1.5 93.5t1 113t3.5 93.5q0 9 -6 14.5t-14 5.5z" />
    <glyph glyph-name="k" unicode="k" horiz-adv-x="437" 
d="M140 600q-8 0 -13.5 -5t-4.5 -15q11 -146 -2 -415q-36 -36 -71 -69q-10 -8 -4.5 -22t19.5 -13q16 2 52 2q-1 -20 -4.5 -59t-4.5 -59q-1 -13 9 -18t21 0t12 18q1 19 3.5 58t2.5 58q104 -8 200 -49q11 -5 21 2t9.5 17t-10.5 16q-104 47 -216 55q0 7 1 22t1 23
q100 100 188 209q8 10 3 21t-15 13.5t-19 -6.5q-81 -100 -154 -176q9 207 -2 372q-3 20 -22 20zM118 104v-1v1z" />
    <glyph glyph-name="l" unicode="l" horiz-adv-x="206" 
d="M106 600q-22 0 -25 -21q-24 -190 -14 -371v-40.5t1.5 -49t6 -44.5t16 -42.5t29.5 -27.5q12 -7 23 0.5t11 18.5t-11 18q-14 8 -23 34.5t-11 65t-2 70.5t1.5 70t1.5 45q0 117 16 253q3 21 -20 21z" />
    <glyph glyph-name="m" unicode="m" horiz-adv-x="473" 
d="M361 292q-11 0 -22.5 -5t-23 -17.5t-20 -22t-20.5 -30t-17 -30t-17.5 -33t-14.5 -28.5q-1 27 -2.5 42t-7 37.5t-15.5 40.5q-4 7 -11.5 8t-13.5 -5q-6 -5 -11 -12t-8 -12t-7.5 -15t-5.5 -13t-6 -16t-6 -15q-7 -21 -33 -80q1 31 3.5 91.5t3.5 90.5q0 10 -8 14.5t-16.5 0
t-8.5 -14.5q-2 -35 -3.5 -81l-3 -92t-2.5 -81q0 -13 13 -17t19 7q22 40 48 100q3 8 16 45.5t23 54.5q8 -24 11.5 -73.5t4.5 -59.5q1 -9 11.5 -11.5t15.5 5.5q10 13 21.5 29.5t16.5 25.5t18.5 33.5t16.5 29.5q1 2 6 11.5t10 17.5t11 17.5t11.5 14.5t10.5 5q9 0 14.5 -6
t6.5 -16.5t0.5 -18t-2 -20.5t-1.5 -15q-1 -4 -6 -31t-7 -49.5t-2.5 -49t9 -41.5t27.5 -14q10 1 14.5 9.5t0 16.5t-14.5 8q-2 0 1.5 26.5t8.5 65.5t7 78t-7 68t-30 32h-6z" />
    <glyph glyph-name="n" unicode="n" horiz-adv-x="401" 
d="M102 351q-9 0 -15.5 -5t-6.5 -15q-3 -54 -8.5 -162.5t-8.5 -162.5q-1 -15 15 -18.5t24 8.5q63 95 98 173q1 3 7.5 20t13 30.5t10.5 13.5q12 1 19.5 -42.5t7.5 -62.5q1 -4 1 -12q0 -13 0.5 -20.5l1.5 -22.5t3.5 -24t6 -20.5t9.5 -17t14 -9.5t19.5 -2t24.5 10q11 8 11 18
t-10 16.5t-21 0.5q-18 -9 -19 42q0 15 1 37v4q0 32 -8 65q-16 65 -51 90q-10 6 -20 0q-11 -9 -21 -22.5t-15 -24t-13 -30t-12 -26.5q-13 -30 -52 -97q2 41 6 124t6 124q0 20 -18 20z" />
    <glyph glyph-name="o" unicode="o" horiz-adv-x="300" 
d="M166 286q-24 -1 -43 -16.5t-30.5 -38.5t-18 -43t-9.5 -39q0 -2 -1 -6q-3 -19 -4.5 -31t-2 -34.5t3.5 -37t15.5 -27.5t30.5 -17q21 -3 40 6t31.5 22.5t25 37t18 37t12.5 33.5q2 4 2 6q3 7 -1 12.5t-12 7.5v4q2 15 2.5 24t0.5 26.5t-3.5 28.5t-9.5 23t-18 17.5t-29 4.5z
M160 239q8 1 13.5 -6.5t7 -21t2 -24t0 -25l-0.5 -14.5q0 -11 11 -15q-1 -2 -5 -14.5t-6 -17.5t-6.5 -15.5t-8.5 -16t-10 -12t-12 -9.5q-48 -26 -46 45q0 19 6 54l2 10t2.5 13t3 12t4 13t4.5 11.5t6.5 12t8 9t9.5 7.5q8 4 15 4z" />
    <glyph glyph-name="p" unicode="p" horiz-adv-x="446" 
d="M255 278q-37 0 -85 -27v5q-2 20 -22 21q-18 1 -20 -15v-6q1 -4 2 -15.5t2 -16.5q-13 -10 -39.5 -34.5t-40.5 -36.5q-10 -8 -6 -18t14 -13.5t20 3.5q40 35 55 48q2 -18 2 -55q-17 -6 -29 -15q-12 -10 -10 -23q8 -43 36 -66q-6 -80 -20 -159q-2 -9 -7.5 -31t-8 -37
t-2.5 -33.5t9 -30.5t27 -17q12 -3 19 5.5t5 19.5t-14 14q-6 5 -5 23t7 51t12 63.5t12 59t7 38.5q0 3 1 7.5t1 7.5q40 -8 87.5 11.5t81.5 57t37 79.5q4 49 -29.5 88t-82.5 45q-2 0 -7.5 1t-8.5 1zM263 239q42 0 69 -46q19 -34 7.5 -65.5t-38 -54t-61.5 -32.5t-61 -1
q0 7 0.5 23t0.5 23q4 1 9.5 3t8.5 3q12 2 14 12.5t-5.5 19t-19.5 6.5q-2 0 -3.5 -1t-3.5 -1q0 11 -0.5 23.5t-2 27.5t-2.5 23q55 37 88 37z" />
    <glyph glyph-name="q" unicode="q" horiz-adv-x="362" 
d="M282 257q-20 4 -26 -16q-3 -14 -8 -28q-27 50 -86 36q-34 -8 -59 -38t-35.5 -64.5t-11.5 -70.5q-1 -42 13.5 -60.5t53.5 -7.5q51 16 100 70q-20 -83 -27 -146q-7 -71 -6.5 -105.5t14.5 -104.5q3 -14 15.5 -16.5t22.5 6.5t7 23q-12 58 -14.5 96t0.5 63t14 96
q6 34 26.5 114.5t25.5 125.5v6q2 18 -19 21zM174 198q17 -1 28.5 -15.5t12.5 -37.5q-44 -81 -90 -84q-43 -2 -19 70q13 31 28 50q20 20 40 17z" />
    <glyph glyph-name="r" unicode="r" horiz-adv-x="311" 
d="M167.5 291q-4.5 0 -10.5 -3q-30 -18 -38 -86q-3 -25 -8 -53q-3 29 -17 120q-3 12 -13 14.5t-18 -5t-5 -19.5q18 -96 21 -241q0 -16 16.5 -17.5t21.5 13.5q26 85 31 114q0 1 2.5 20.5t5 37t6 36t5.5 23.5q0 -6 12 -21.5t18 -21.5q24 -13 51 0q11 6 11.5 15t-9 16t-20.5 2
q-7 -3 -17 8.5t-20.5 26.5t-15.5 18t-9.5 3z" />
    <glyph glyph-name="s" unicode="s" horiz-adv-x="247" 
d="M109 288q-26 0 -40 -22q-24 -33 3 -98q6 -13 18 -37q0 -1 -4 -14t-5 -17l-4 -16t-3 -18v-15.5t2.5 -17t7.5 -13.5q12 -18 34.5 -20t37.5 14q3 3 3 6q7 -2 13 2.5t6 10.5q1 9 -3 20.5t-7.5 18.5t-12.5 21.5t-11 18.5q-2 3 -11 18t-14.5 25t-9.5 20q-9 19 -12 43
q-7 33 15 30q15 -2 40 -20q3 -9 13.5 -10.5t18 3.5t4.5 14q-8 19 -31.5 36t-47.5 17zM117 90q21 -29 24 -49q-2 -1 -2 -6q-11 0 -15 -7q-5 -5 -11 23l-1 2q0 15 2 23q0 3 3 14z" />
    <glyph glyph-name="t" unicode="t" horiz-adv-x="374" 
d="M183 479q-12 0 -15 -13q-20 -86 -36 -162q-3 0 -13.5 -1t-15.5 -2t-14.5 -2.5t-15 -4t-11.5 -6t-10 -8.5t-6 -12q-2 -12 9 -22q20 -15 63 -15q-13 -95 -5 -163q8 -58 43 -68q5 -3 11.5 -1.5t10 1.5t9.5 4.5t8.5 6t7.5 7.5t7.5 8.5t7.5 8.5t7 8q7 9 3 19t-12.5 12.5
t-17.5 -5.5q-1 -2 -7 -10t-11.5 -14.5t-7.5 -6.5q-13 -1 -17.5 17t-4.5 35q-2 51 10 136q3 32 7 48q32 4 34 4q43 6 112 6q11 0 15.5 9.5t0 18.5t-15.5 9q-66 0 -140 -10q11 67 30 144q3 11 -3.5 17.5t-16.5 6.5zM125 268h-5h5z" />
    <glyph glyph-name="u" unicode="u" horiz-adv-x="363" 
d="M254 278q-9 0 -16 -6t-7 -16v-5q-5 -5 -7 -12q-35 -115 -80 -172q-22 -31 -36 -9q-3 5 -3.5 13.5t0.5 20.5t1 14q0 46 10 117q2 19 -17.5 26t-24.5 -9q-1 -3 -2 -5q-16 -119 -8 -180q3 -25 16 -40.5t37 -14.5q20 2 37.5 15.5t26.5 27t21 33.5q18 33 29 57q0 -23 3 -70
q2 -19 4 -28.5t6.5 -25t14 -24t23.5 -10.5q19 -3 26 16.5t-10 25.5q-2 1 -4 1q-33 5 -18 238q0 10 -6.5 16t-15.5 6z" />
    <glyph glyph-name="v" unicode="v" horiz-adv-x="324" 
d="M249 291q-11 0 -17 -13q-4 -13 -17 -61t-24 -79.5t-25 -59.5q-2 -2 -4 -7.5t-3.5 -8t-4 -6.5t-5 -4.5t-6.5 -2t-9 1.5q-3 2 -5.5 4t-5 5t-3.5 5t-2.5 7t-2 6.5t-2 7.5t-1.5 7q-14 48 -14 123q0 12 -10.5 17t-20.5 0t-10 -17q0 -14 1 -32.5t4 -47t9.5 -53.5t15.5 -46.5
t24 -31.5t34 -3q37 13 66 81q14 36 35.5 107t23.5 78q4 11 -3.5 17t-17.5 6z" />
    <glyph glyph-name="w" unicode="w" horiz-adv-x="395" 
d="M316 292q-5 0 -10 -3.5t-7 -9.5q-7 -29 -15 -91.5t-17 -94.5q0 -1 -2 -7.5l-4 -13t-5 -14t-5 -11.5t-4 -4q-3 33 -3 38q-2 18 -6 53t-7 52q-1 13 -15 18.5t-20 -8.5q-13 -26 -37.5 -80t-37.5 -81q-14 21 -19 64t-4 66.5t4 64.5q1 11 -8 16t-19 0t-11 -16q0 -4 -1 -26
t-1.5 -30t-0.5 -29t1 -32t3 -30t6.5 -30.5t10 -25.5t14.5 -24.5t20 -17.5q6 -4 15 -1t12 9q9 20 28.5 61t28.5 60q0 -7 1.5 -23t2.5 -24.5t3.5 -21t6.5 -22.5q5 -15 16.5 -22.5t26.5 -2.5q32 14 51 92q7 29 13.5 89.5t13.5 89.5q3 11 -3.5 17t-15.5 6z" />
    <glyph glyph-name="x" unicode="x" horiz-adv-x="367" 
d="M290 274q-15 0 -18 -15q-9 -36 -73 -96q-46 89 -107 102q-14 2 -24 -10l-4 -4q-7 -9 0 -21q0 -1 1 -2t1 -2q10 -18 28 -8q36 -18 70 -88q-49 -49 -101 -94q-11 -8 -7.5 -19.5t14.5 -14.5t22 4q57 49 90 82q6 -13 21 -52t24 -59q7 -11 17.5 -11.5t18 10t1.5 22.5
q-8 18 -23.5 62t-23.5 63q2 2 4.5 5t3.5 5q6 6 24.5 24t28.5 29t21 28.5t15 33.5q2 11 -5.5 19.5t-18.5 6.5z" />
    <glyph glyph-name="y" unicode="y" horiz-adv-x="430" 
d="M341 284q-19 0 -22 -19q-2 -18 -5 -69q-35 -131 -85 -146q-16 -5 -21.5 -1t-8.5 19q-5 27 -8 57q-6 64 1 136q1 13 -8.5 18t-20 0t-10.5 -18q-12 -120 6 -204q6 -27 18.5 -43t36.5 -14q45 5 93 65q-2 -64 -3 -112t0 -65q0 -2 1.5 -16.5t2 -20t1 -18t0.5 -19t-0.5 -15.5
t-2.5 -14.5t-5 -9.5q-7 -10 -25 -10.5t-40.5 5t-49.5 15.5t-49.5 20t-44 19t-29.5 11q-12 3 -19.5 -5.5t-5 -19t14.5 -13.5q56 -16 170 -70q50 -25 76 -19q19 6 29.5 19t14 33t3.5 36.5t-2 41t-2 32.5q3 195 12 314q3 11 7 30.5t5 21.5q4 11 -7 20v9q1 9 -4.5 14t-13.5 5z
" />
    <glyph glyph-name="z" unicode="z" horiz-adv-x="478" 
d="M280 263h-17q-87 -3 -197 -30q-12 -3 -14.5 -14.5t5.5 -20t21 -5.5q53 13 137 23q39 4 57 4q-1 -1 -9 -7q-30 -22 -61 -51.5t-67.5 -68.5t-56.5 -58q-12 -12 -3 -25t25 -10q151 24 303 -19q13 -4 21 4.5t5.5 20.5t-14.5 16q-124 36 -262 26q18 17 55.5 54t55.5 55
q1 0 24.5 19t33 34t3.5 31q-8 22 -45 22z" />
  </font>
</defs>
</svg>
