<svg width="35" height="27" xmlns="http://www.w3.org/2000/svg" xmlns:xlink="http://www.w3.org/1999/xlink" xmlns:svgjs="http://svgjs.com/svgjs" viewBox="0 0.137 35 26.726" fill="#fff"><svg xmlns="http://www.w3.org/2000/svg" width="35" height="27" viewBox="1.998 1.013 34.004 25.965"><path paint-order="stroke fill markers" fill-rule="evenodd" d="M24.192 1.018h-.041-.043-.04-.042-.04-.042-.04-.042-.04-.04-.04-.043-.041-.041-.04-.04-.042-.04-.042-.04-.04-.04-.041-.041-.041-.041-.041-.04-.042-.042-.04-.042-.04-.042-.04-.041-.043-.041-.041-.041-.039-.04-.042-.039-.043-.04-.041-.041-.041-.041-.04-.04-.041-.04-.042-.04-.044-.04-.042-.04-.041-.041-.041-.041-.042-.04-.044-.04-.042-.04-.042-.04-.041-.041-.041-.041-.043-.041-.041-.04-.042-.035-.04-.042-.04-.041-.041-.04-.041-.041-.042-.04-.042-.04-.042-.04-.042-.04-.041-.041-.041-.041-.041-.041-.04-.04-.043-.04-.043-.04-.041-.041-.038-.041-.041-.041-.042-.04-.042-.042-.04-.04-.04-.041-.041-.041-.041-.041-.04-.042-.04-.042-.04-.042-.04-.041-.042-.041-.041-.041-.042-.04-.04-.04-.04-.042-.042-.04-.041-.041-.041-.022-.1c-.014.003-.027.003-.04.004l-.043.001-.04.002-.042.002-.04.003-.042.001-.041.005-.041.003a.427.427 0 0 0-.041.005l-.041.004-.041.005-.041.006-.041.005a.72.72 0 0 0-.04.007l-.042.008-.04.007-.043.009-.04.008a.49.49 0 0 0-.041.008l-.041.01-.041.008-.041.01a.494.494 0 0 0-.041.01l-.041.01-.041.013-.04.011-.042.012a.807.807 0 0 0-.04.013l-.042.013-.042.014-.04.014-.042.015-.041.016c-.014.004-.027.01-.041.015l-.041.016-.042.016-.041.018c-.014.006-.027.01-.041.017a1.576 1.576 0 0 1-.04.019l-.042.018-.04.019a.328.328 0 0 0-.043.02l-.04.02-.041.021-.041.02-.041.022-.042.021a.643.643 0 0 1-.041.024c-.014.007-.027.015-.041.02l-.041.025-.042.025a.47.47 0 0 1-.04.026c-.015.008-.028.018-.042.026l-.04.027c-.015.008-.029.019-.042.027l-.04.028c-.014.01-.027.02-.042.028-.013.01-.027.022-.041.03-.013.01-.027.021-.041.03l-.041.032-.041.031-.042.036c-.014.01-.027.022-.041.034-.014.012-.027.021-.04.034l-.042.036c-.014.012-.027.023-.04.037-.015.013-.029.024-.042.037l-.042.039c-.012.013-.027.025-.04.038l-.041.042a.801.801 0 0 0-.041.042c-.014.013-.027.028-.041.043l-.041.043-.041.045-.041.046a5.066 5.066 0 0 1-.04.048l-.043.049-.04.05-.043.052-.04.055-.042.056-.04.057-.041.06-.041.063-.041.064a2.087 2.087 0 0 0-.041.068l-.041.07-.041.073-.04.076a4.125 4.125 0 0 0-.043.08l-.04.085-.043.09-.04.095c-.014.034-.028.067-.041.103l-.041.11L13.95 4c-.015.044-.028.09-.041.134a6.443 6.443 0 0 0-.082.335 4.399 4.399 0 0 0-.088.879v5.664l.088-.075.04-.033c.015-.01.028-.021.042-.033l.04-.031a.927.927 0 0 1 .083-.061l.04-.03.041-.028c.014-.01.027-.02.042-.027l.041-.028c.014-.01.027-.018.042-.026.013-.01.027-.018.041-.026a.754.754 0 0 1 .041-.025l.04-.025.042-.024c.014-.009.027-.017.04-.023l.042-.023.04-.023c.015-.006.028-.014.041-.022l.041-.021.041-.021.042-.022.041-.021.042-.02.041-.019.041-.02.04-.017.042-.019.04-.017.042-.018.04-.017.041-.016.042-.016.041-.017.041-.016.041-.015.041-.015.041-.015.042-.015.04-.014.042-.014c.013-.004.027-.01.04-.013l.042-.014.042-.013.04-.012.041-.013.041-.012.041-.012.041-.012.042-.011.041-.011.05-.012.04-.01.043-.01.04-.01.042-.01.04-.01.041-.01.042-.009.041-.009.041-.01.041-.008.04-.008.042-.009.042-.008.04-.008.042-.008.04-.007.042-.007.041-.007.042-.007.041-.008.041-.007.041-.005.041-.007.04-.006.042-.005.04-.006.042-.005.04-.005.042-.006.04-.006.041-.004.042-.006.041-.004.041-.005.041-.004.04-.005.042-.003.04-.004.042-.004.04-.004.042-.003.042-.003.04-.003.041-.002.041-.004.041-.002.042-.002.041-.004.04-.002.042-.002.04-.002.042-.002.04-.002.042-.002.04-.001.042-.002h.041l.041-.002h.041l.041-.002h.083l.04-.002h.082l.043-.002H19.092l.042.001h.081l.042.002h.124l.041.002.042.001.04.001.042.001.04.001.042.001.04.002.041.002h.021l.02.001.043.002.041.001.041.002.041.003.041.002.04.002.042.004.04.002.042.004.04.003.042.003.04.004.041.004.041.003.041.004.042.003.041.004.042.004.04.004.042.004.04.006.043.004.04.004.042.004.04.006.041.005.041.005.042.005.041.005.041.005.041.005.04.006.044.006.04.006.042.006.04.006.041.007.041.005.041.006.041.006.041.007.041.006.043.006.04.007.04.007.042.007.04.007.043.007.04.007.041.008.041.007.041.007.041.009.041.007.041.007.041.008.04.007.042.008.04.01.042.008.04.008.041.008.043.008.041.008.041.01.041.008.041.008.041.009.043.008.04.009.042.01.04.008.042.01.04.009.041.009.041.01.041.01.043.01.041.008.041.01.04.01v1.832l-.04-.022-.04-.02-.042-.021-.043-.02-.04-.02-.042-.022-.04-.02-.041-.02-.041-.02-.041-.018-.041-.02-.041-.02-.043-.018-.041-.018-.04-.018-.042-.018-.04-.019-.042-.017-.043-.017-.04-.018-.041-.017-.041-.017-.041-.016-.041-.017-.041-.016-.041-.015-.041-.016-.04-.015-.042-.014-.04-.015-.042-.015-.04-.013-.041-.014-.043-.013-.04-.014-.041-.013-.04-.013-.041-.013-.043-.013-.04-.012-.042-.012-.04-.012-.042-.011-.04-.011-.041-.012-.041-.01-.041-.01-.041-.01-.043-.01-.041-.01-.041-.01-.04-.009-.042-.009-.042-.008-.04-.008-.042-.008-.04-.008-.041-.008-.041-.008-.042-.007-.041-.007-.041-.008-.041-.006-.042-.006-.04-.007-.043-.006-.04-.006-.042-.005-.04-.006-.041-.004-.041-.005-.041-.004-.041-.005-.061.01-.041-.004-.041-.003-.04-.004-.04-.003-.026-.002h-.016l-.04-.003-.043-.002-.04-.002-.041-.002L19.61 11l-.041-.002h-.041l-.041-.002h-.04H19.363h-.042-.042-.04l-.043.002h-.04c-.014.002-.027.002-.041.002l-.041.002-.041.003-.041.003-.041.003-.041.003c-.014 0-.027.002-.04.004l-.042.004-.04.005-.042.004-.04.006-.041.007-.041.006a.593.593 0 0 0-.042.008l-.041.006-.041.008c-.014.003-.028.004-.041.008l-.042.008-.04.008-.042.01-.04.01c-.015.004-.028.008-.042.01l-.04.011-.042.012-.041.012-.041.012c-.014.006-.027.009-.041.014l-.041.013-.041.014a.87.87 0 0 0-.041.017.337.337 0 0 0-.04.015l-.042.016-.042.016-.04.019-.042.018-.04.02c-.015.005-.027.012-.041.02l-.042.02-.041.021-.041.022a.61.61 0 0 0-.041.023l-.041.023-.041.026-.04.026-.042.027-.04.028-.042.03-.042.03c-.014.01-.027.022-.04.033-.015.011-.028.021-.041.033l-.041.035a1.117 1.117 0 0 0-.041.037l-.041.037-.041.04a1.525 1.525 0 0 0-.041.042l-.041.044-.04.046a1.043 1.043 0 0 0-.042.049l-.04.05-.042.055-.042.057c-.013.021-.027.04-.04.062l-.042.064c-.014.021-.027.046-.041.07a1.9 1.9 0 0 0-.041.075c-.014.028-.028.054-.041.083-.015.028-.028.059-.042.09-.014.032-.028.063-.041.097a4.774 4.774 0 0 0-.082.239c-.014.05-.029.1-.04.153a3.663 3.663 0 0 0-.1.879 4.113 4.113 0 0 0 .058.679 3.106 3.106 0 0 0 .082.349c.013.044.027.085.041.127.013.038.026.075.041.111.013.034.027.064.04.1l.043.09.04.08.042.074.04.07c.015.021.028.045.042.064l.041.061.042.06.041.053.041.052a5.066 5.066 0 0 0 .082.093l.041.046c.013.014.027.026.04.042l.042.04.04.037.042.036c.013.014.027.021.04.036l.041.03c.013.013.027.022.041.033.014.01.027.021.042.03a.218.218 0 0 0 .041.029c.014.009.027.019.041.027.013.01.027.02.041.025.014.006.027.019.041.026.014.006.027.018.04.024.015.006.028.018.042.023.013.009.027.017.04.023l.042.02c.014.01.027.018.04.022a.388.388 0 0 0 .043.02c.014.01.026.015.04.021.013.007.027.015.041.02l.041.02a.39.39 0 0 0 .041.02c.014.004.027.01.042.017.013.004.027.01.041.017.014.004.027.01.04.016.015.004.028.01.042.015.014.004.027.01.04.016a.766.766 0 0 1 .083.027.567.567 0 0 0 .082.026l.041.012c.013.002.027.006.041.01.014.002.027.008.041.01l.041.01c.014.006.027.008.041.012a.294.294 0 0 0 .041.008.207.207 0 0 0 .042.01l.04.007a.293.293 0 0 0 .042.008l.04.008.043.006.04.006.041.007.041.008.041.004.041.004.041.005c.014.002.027.004.041.004l.041.004.04.002.042.004.04.002.042.004c.014 0 .027 0 .04.002h.041l.042.002H19.486l.042-.002h.04l.042-.002.04-.004.042-.002.04-.002.042-.002.041-.002.016-.002.025-.002.041-.002.04-.005.041-.004.04-.004.042-.004.04-.006.042-.005.04-.004.041-.006.041-.006.041-.006.041-.006.043-.008.041-.008.041-.006.041-.006.04-.006.042-.008.043-.009.04-.006.042-.009.04-.008.041-.011.041-.008.041-.01.041-.009.041-.01.041-.01.04-.008.044-.011.04-.01.042-.012.04-.012.042-.012.04-.01.041-.012.041-.013.041-.013.041-.013.043-.013.04-.012.042-.014.04-.014.042-.013.04-.016.042-.014.04-.014.041-.014.041-.017.041-.015.041-.015.041-.017.041-.016.04-.016.042-.017.04-.017.042-.017.04-.018.042-.016.042-.02.041-.019.041-.016.041-.02.041-.02.041-.018.043-.02.04-.02.042-.02.04-.02.042-.02.04-.021.041-.02.041-.022.041-.02.043-.02.041-.022.041-.021.041-.022v1.83l-.041.011-.04.01-.042.01-.043.011-.04.01-.042.01-.04.01-.041.01-.041.01-.041.009-.055.033-.041.01-.04.009-.042.008-.04.011-.042.008-.043.01-.04.008-.041.01-.041.008-.041.008-.041.006-.041.008-.041.008-.04.01-.042.008-.04.009-.042.006-.04.008-.042.008-.04.006-.041.008-.041.008-.043.008-.041.006-.041.009-.041.006-.04.003-.042.008-.04.006-.042.006-.04.009-.042.007-.042.006-.041.006-.041.007-.041.017-.041.006-.041.006-.041.006-.042.006-.04.004-.042.006-.042.006-.04.004-.041.006-.041.004-.041.005-.041.007-.042.004-.041.004-.04.005-.04.004-.044.004-.04.004-.042.004-.04.004-.04.002-.042.002-.04.004-.041.004-.041-.002-.041.004-.041.002-.041.004-.04.002-.042.004-.04.003-.044.002-.04.002-.042.002h-.02-.02l-.041.002h-.041l-.041.002-.041.002-.042.003h-.04l-.043.002h-.04l-.042.002h-.042l-.04.002h-.042-.041-.041-.041l-.041.002h-.041-.041-.04-.042-.04-.042-.022-.04-.042-.04-.042l-.041-.002h-.041-.041l-.042-.002h-.04l-.042-.002h-.04l-.042-.002-.04-.003-.043-.002h-.04l-.041-.002-.041-.002-.041-.002-.038.006-.041-.002-.041-.002-.04-.002-.043-.004-.04-.003-.042-.004-.04-.002-.042-.004-.041-.002-.041-.004-.041-.004-.041-.002-.041-.004-.041-.004-.04-.006-.042-.004-.04-.004-.042-.004-.042-.007-.04-.004-.041-.007-.041-.004-.041-.007-.041-.006-.041-.006-.041-.002-.041-.008-.04-.006-.042-.006-.04-.008-.042-.006-.042-.009-.04-.007-.042-.008-.041-.006-.041-.007-.041-.009-.042-.008-.041-.008-.04-.008-.042-.008-.04-.01-.042-.01-.042-.004-.04-.01-.042-.01-.04-.01-.041-.012-.042-.01-.041-.011-.041-.01-.041-.014-.042-.01-.04-.013-.042-.013-.04-.012-.042-.012-.04-.014-.042-.01-.041-.012c-.013-.006-.027-.01-.041-.015l-.041-.015-.03-.021-.041-.015-.041-.016c-.014-.004-.027-.01-.04-.016l-.042-.014c-.014-.007-.027-.014-.04-.018l-.042-.017-.042-.018-.04-.016-.041-.02-.041-.02-.041-.018-.041-.018-.041-.02-.041-.02-.041-.021-.042-.02-.04-.02-.043-.022-.04-.02c-.015-.008-.028-.016-.042-.022-.013-.008-.026-.016-.04-.021l-.041-.023-.041-.02-.041-.019-.041-.023c-.014-.008-.027-.019-.041-.023l-.041-.024c-.014-.01-.027-.02-.04-.026a.258.258 0 0 0-.043-.025l-.04-.028c-.015-.008-.028-.02-.043-.026l-.04-.027a.407.407 0 0 0-.042-.029l-.04-.03-.041-.029-.041-.032-.041-.031c-.014-.012-.028-.021-.041-.033-.03-.024-.06-.05-.088-.075v9.99H20.081c.015 0 .028 0 .042-.003h.04l.042-.002.04-.002.041-.002c.014-.002.027-.002.041-.002l.041-.004.042-.004.041-.004.042-.006.04-.004.042-.006.04-.006.043-.006.04-.006a.293.293 0 0 0 .041-.009l.041-.007.041-.008a.389.389 0 0 1 .041-.01c.015-.001.026-.005.042-.01l.041-.01.041-.01c.015-.001.027-.005.04-.01l.042-.01.043-.012c.013-.005.025-.007.04-.011l.042-.014.04-.012a.28.28 0 0 0 .041-.014l.041-.012a.329.329 0 0 1 .041-.014l.041-.018.041-.015.041-.014.043-.018.04-.017c.013-.004.026-.01.042-.017l.04-.02.042-.016.04-.02a.383.383 0 0 0 .041-.02.626.626 0 0 0 .082-.041c.014-.006.027-.014.041-.021.014-.006.027-.014.041-.022.014-.006.027-.015.041-.021l.041-.021.04-.022.042-.021c.016-.01.027-.018.04-.023.017-.009.028-.019.042-.024l.04-.023c.017-.01.028-.019.042-.026.016-.008.027-.018.04-.025.017-.01.028-.02.043-.027.014-.009.027-.019.041-.026.014-.007.025-.02.041-.03.014-.008.027-.019.041-.027.016-.01.027-.02.041-.03.016-.01.027-.02.041-.029.016-.01.027-.021.043-.032.014-.01.025-.02.04-.03l.042-.033c.014-.01.025-.021.04-.033.015-.013.028-.021.042-.036a.716.716 0 0 0 .04-.033l.042-.038c.015-.014.026-.023.04-.038.016-.012.027-.023.041-.037l.043-.04.041-.042c.014-.014.027-.025.041-.041a4.06 4.06 0 0 1 .041-.042l.041-.044c.016-.016.027-.03.04-.046.015-.014.028-.029.042-.046l.04-.047a.907.907 0 0 1 .042-.05l.04-.054c.015-.017.027-.034.041-.052l.041-.055.041-.057c.014-.02.027-.04.041-.058.014-.021.027-.041.043-.062.014-.021.025-.041.041-.063a.562.562 0 0 1 .041-.063c.014-.021.027-.044.04-.067.015-.023.028-.046.04-.07a.723.723 0 0 0 .04-.073c.017-.025.03-.051.044-.078.014-.024.027-.055.04-.081.015-.027.028-.057.042-.086.014-.028.026-.06.04-.09l.041-.098c.016-.035.027-.068.041-.105.016-.038.027-.076.041-.114.016-.041.03-.083.041-.125.016-.046.029-.091.041-.14.016-.053.029-.106.041-.16.018-.063.029-.129.043-.193a4.622 4.622 0 0 0 .076-.814V1.018h-.076zm-11.723 0h-.061-.041-.041-.041-.04-.042-.042-.04-.042-.04-.041-.041-.041-.04-.04-.042-.041-.041-.04-.042-.04-.042-.04-.041-.041-.041-.042-.041-.042-.041-.041-.04-.042-.04-.039-.04-.041-.041-.042-.041-.042-.04-.041-.04-.043-.042-.04-.04-.041-.042-.041-.042-.041-.041-.038-.04-.043-.04-.042-.04-.043-.04-.041-.041-.041-.042-.041-.042-.04-.042-.04-.042-.04-.042-.041-.035-.041-.041-.041-.041-.042-.04-.042-.04-.043-.039-.04-.041-.041-.041-.042-.041-.04-.042-.04-.04-.042-.04-.042-.04-.042-.041-.041-.041-.041-.04-.04-.04-.042-.04-.043-.04-.041-.041-.041-.041-.04-.041-.041-.04-.043-.04-.043-.04-.041-.042-.038-.041-.041-.041-.041-.04-.042-.042-.04-.042-.04-.04-.04-.042-.041-.041-.041-.04-.043-.04-.04-.04-.042-.04-.042-.022-.101c-.014 0-.027.003-.041.004l-.041.001-.04.002-.042.002c-.014 0-.027 0-.04.003l-.043.001-.04.006c-.015 0-.028.002-.043.003-.012 0-.026.003-.04.004l-.041.006-.041.003c-.014.003-.027.004-.041.008-.013 0-.028.004-.041.005-.014 0-.027.004-.041.005l-.041.008c-.014 0-.028.005-.042.009-.014.002-.027.004-.04.008-.014.002-.028.002-.042.008-.014.002-.028.006-.042.007l-.04.008-.042.012c-.013.001-.027.007-.041.01-.014.003-.027.005-.041.01-.014.003-.028.008-.041.01l-.042.01c-.014.006-.027.01-.041.013-.014.004-.027.01-.04.013-.014.005-.028.007-.042.013l-.04.014-.042.014-.042.013c-.014.006-.027.008-.04.017l-.041.013-.041.016-.032.015-.042.017-.041.018-.041.017c-.013.004-.027.012-.041.017-.014.008-.028.014-.042.019l-.04.02-.042.02-.04.02-.042.022c-.014.008-.028.013-.04.023a.656.656 0 0 1-.042.022l-.041.021a1.615 1.615 0 0 0-.041.025l-.041.02c-.014.008-.027.02-.041.027l-.042.024c-.014.008-.027.017-.041.023-.014.009-.027.02-.04.027-.014.008-.028.019-.042.026-.014.007-.027.02-.04.026a1.95 1.95 0 0 1-.042.03c-.014.01-.027.018-.042.03l-.04.028-.041.033-.041.031a.552.552 0 0 1-.042.03.58.58 0 0 1-.041.033c-.014.014-.027.022-.041.035a.527.527 0 0 1-.041.035c-.014.013-.027.023-.04.037-.015.01-.028.023-.043.034a.476.476 0 0 1-.04.037.857.857 0 0 1-.043.04c-.013.013-.027.023-.04.037-.015.016-.028.026-.042.042a.523.523 0 0 0-.04.043l-.041.042-.041.042c-.014.017-.028.031-.042.045a.702.702 0 0 1-.041.047 1.323 1.323 0 0 1-.042.049c-.014.013-.027.031-.041.049-.014.016-.027.03-.04.049-.015.018-.029.034-.042.054a.466.466 0 0 0-.04.052l-.043.055-.04.058c-.015.02-.028.04-.041.06l-.041.062c-.015.02-.028.043-.042.063a1.646 1.646 0 0 1-.041.067l-.041.072c-.014.024-.028.047-.041.072l-.041.076-.041.08-.042.086c-.014.028-.027.058-.04.088-.015.032-.028.065-.042.093-.014.038-.028.07-.04.106-.016.034-.028.073-.042.109l-.041.122-.041.136c-.014.051-.03.102-.041.154-.015.06-.03.118-.041.18a4.423 4.423 0 0 0-.088.88v10.684c.03.016.059.028.088.044l.04.02.042.02.04.022.042.02.041.02.041.02.041.018.041.021.042.017.041.02.04.018.042.02.04.019.042.017.042.018.04.018.041.018.041.018.042.017.041.017.041.016.041.018.04.015.043.017.04.016.043.014.04.017.042.015.04.015.041.016.041.014.042.012.041.016.042.015.04.014.042.012.04.013.042.012.042.014.04.011.041.013.041.012.042.012.041.01.041.011.041.01.041.013.04.01.043.012.04.01.042.01.04.01.042.009.041.008.041.008.041.01.041.008.041.01.041.006.042.008.04.006.042.009.04.007.043.007.04.006.041.004.041.006.041.007.042.006.041.004.041.004.041.006.041.004.04.004.043.002.04.004.042.002.04.004h.042l.041.002.042.003.041.002.041.001.042.001h.041l.04.001h.165c.013 0 .028 0 .04-.002.014 0 .028 0 .042-.002.014 0 .027 0 .041-.002l.042-.004c.013 0 .027 0 .041-.002l.041-.004.041-.004.04-.006a.144.144 0 0 0 .042-.006l.04-.006.042-.008.04-.009.043-.008.04-.008a.518.518 0 0 1 .041-.01l.041-.011c.014-.006.027-.008.041-.012l.041-.012.042-.014.041-.014a.327.327 0 0 1 .04-.014.866.866 0 0 0 .082-.033c.015-.006.029-.012.043-.02a.623.623 0 0 0 .04-.019c.015-.006.028-.014.042-.02l.04-.02c.014-.009.028-.015.041-.022l.041-.023c.014-.006.027-.014.042-.022a.61.61 0 0 1 .041-.023c.014-.008.027-.02.041-.025l.04-.028.042-.03.04-.03.042-.032.04-.034.043-.037c.013-.015.026-.026.04-.04l.041-.044.042-.044.041-.048c.014-.019.028-.033.042-.053l.041-.058a2.27 2.27 0 0 0 .082-.125c.014-.023.028-.048.04-.072.015-.025.029-.056.042-.081.014-.027.028-.062.04-.092.016-.053.029-.086.042-.124a1.872 1.872 0 0 0 .082-.294c.018-.091.032-.187.041-.282.006-.075.01-.152.01-.233v-5.02H11.626v5.022a4.387 4.387 0 0 1-.06.729 3.153 3.153 0 0 1-.206.69c-.013.03-.027.063-.041.091-.013.026-.027.057-.042.084l-.041.076-.041.07c-.014.021-.027.045-.04.066a1.87 1.87 0 0 1-.042.062l-.04.062-.042.058-.04.052-.041.05a.843.843 0 0 1-.082.096.592.592 0 0 1-.042.043c-.013.015-.027.028-.041.042a.773.773 0 0 1-.041.042c-.013.014-.027.025-.041.038-.014.014-.027.025-.04.04-.015.011-.028.022-.042.035l-.042.033-.04.033c-.014.013-.028.021-.042.031-.013.013-.027.022-.04.03a.324.324 0 0 1-.041.03c-.014.01-.027.021-.042.029a.206.206 0 0 1-.041.026c-.014.01-.027.02-.041.028a.199.199 0 0 1-.041.025c-.014.008-.027.018-.041.024-.014.01-.027.019-.041.024-.014.009-.027.017-.042.024a.493.493 0 0 1-.04.024l-.042.02c-.014.008-.027.016-.04.022l-.043.02-.04.022-.041.018a.322.322 0 0 1-.041.022l-.041.02-.042.02-.041.022c-.014.004-.028.011-.042.017l-.042.02-.04.019c-.015.005-.028.01-.042.017-.014.006-.027.012-.04.016l-.042.017-.042.016-.04.014c-.014.007-.027.011-.042.017l-.041.012-.041.014c-.014.004-.028.01-.041.013l-.041.012-.042.013-.04.014-.042.014-.04.01-.043.012-.04.012c-.015.004-.027.009-.041.01-.013.005-.027.01-.041.013l-.041.011-.041.01-.042.012-.041.008-.041.01-.04.006-.042.008-.04.01-.042.009-.04.008-.042.009-.04.006c-.014.002-.028.004-.042.008l-.041.006c-.013.004-.027.006-.041.008l-.041.006-.041.007-.042-.02-.04.006-.042.007-.04.002-.042.007-.042.002-.04.006-.041.006-.041.004-.041.004-.041.006-.041.004-.041.004-.04.005-.042.002-.042.004-.04.004-.043.002-.04.002-.041.002-.042.005-.041.002-.036.006-.041.002-.041.002-.041.002h-.04-.042l-.042.003-.04.003-.042.002h-.04l-.041.002h-.041l-.042.002h-.041l-.041.002h-.041-.04-.043-.04-.039-.04-.026-.016-.04-.042-.041-.041-.041-.041-.04l-.042-.002h-.04-.042-.042-.04-.042l-.041-.003h-.041l-.041-.003h-.041l-.041-.002-.041-.002-.04-.002-.043-.002-.036-.005-.04-.002-.043-.003-.04-.002-.042-.002-.041-.005-.041-.002-.041-.002-.042-.004-.041-.002-.04-.003H5l-.04-.005-.042-.002-.042-.004-.04-.002-.041-.004-.041-.004-.036-.006-.042-.004-.041-.005-.041-.004-.041-.004-.042-.004-.04-.006-.042-.004-.04-.004-.042-.004-.04-.004-.042-.006-.041-.004-.041-.004-.041-.004-.041-.006-.042-.006-.041-.006-.04-.004-.042-.006-.04-.006-.042-.006-.042-.004-.04-.006-.041-.008-.041-.004-.042-.006-.041-.008-.041-.006-.041-.006-.04-.007-.043-.006-.04-.006-.043-.006-.04-.008-.042-.006-.04-.009-.041-.006-.041-.007-.042-.008-.041-.007-.042-.008-.041-.01-.04-.005-.042-.008-.04-.008-.043-.008-.04-.008-.041-.008-.041-.01-.042-.008-.041-.01-.041-.01-.041-.008-.041-.007-.041-.01-.042-.01-.04-.009-.042-.01-.04-.01-.042-.011-.041-.011-.041-.01-.041-.01-.041-.01-.088-.022v9.119H8.317c.015 0 .029 0 .043-.002h.04l.041-.002.041-.002.041-.002c.014-.002.027-.002.041-.002.014-.003.027-.003.041-.005l.041-.004c.014 0 .027-.002.04-.004l.042-.006.042-.004.04-.006.042-.004c.013-.002.027-.004.04-.008l.041-.006.041-.009.042-.007c.013-.002.027-.007.041-.009a.293.293 0 0 1 .041-.008c.014-.002.027-.006.041-.01l.042-.01.04-.01.042-.01.04-.01c.015-.005.028-.01.042-.013.014-.005.027-.007.042-.011l.04-.013.042-.012.041-.015.041-.012a.327.327 0 0 1 .041-.014l.041-.017.041-.016.042-.015.04-.017a.404.404 0 0 0 .043-.015l.04-.019c.014-.005.028-.013.042-.02l.04-.018.041-.018a.422.422 0 0 0 .042-.02l.041-.02a.248.248 0 0 1 .041-.02l.041-.022c.015-.007.028-.013.042-.022.014-.008.027-.016.041-.02l.04-.023a.643.643 0 0 1 .042-.023c.014-.008.027-.016.04-.02a.2.2 0 0 1 .042-.024l.042-.024.04-.024c.014-.008.028-.019.041-.026a.151.151 0 0 1 .041-.023.245.245 0 0 1 .041-.028l.042-.026.041-.029a.482.482 0 0 1 .041-.027.714.714 0 0 1 .041-.03.316.316 0 0 1 .04-.029 1.41 1.41 0 0 1 .084-.063 3.01 3.01 0 0 0 .04-.033c.015-.01.028-.022.042-.034l.04-.034.041-.035.041-.038c.014-.012.027-.023.041-.037.014-.013.027-.024.041-.04l.041-.038c.014-.016.027-.026.04-.04.015-.016.028-.03.042-.042.014-.018.028-.027.042-.043l.04-.044a.961.961 0 0 1 .043-.045l.04-.047c.015-.018.028-.032.041-.05.014-.016.028-.032.041-.05l.041-.051.041-.053.041-.055.041-.056a2.27 2.27 0 0 1 .041-.06c.014-.021.028-.04.04-.062l.042-.063.042-.064.04-.066c.015-.022.029-.046.042-.068l.04-.075c.015-.025.027-.05.041-.078.014-.025.028-.054.041-.081l.041-.086c.014-.028.028-.06.041-.09l.041-.097.042-.106.04-.112a5.889 5.889 0 0 0 .083-.265c.015-.055.029-.106.04-.16a4.157 4.157 0 0 0 .084-.455c.022-.183.034-.367.034-.554V1.02h-.034zm23.515-.005h-.072v.005h-.04-.04-.042-.04-.042-.04-.041-.042-.041-.041-.043-.039-.041-.04-.042-.04-.042-.04-.044-.04-.041-.04-.042-.041-.041-.041-.04-.04-.042-.04-.042-.04-.041-.041-.041-.041-.041-.043-.04-.042-.039-.04-.042-.04-.041-.041-.041-.041-.043-.04-.043-.04-.042-.04-.042-.04-.041-.041-.043-.037-.041-.041-.041-.04-.042-.04-.042-.04-.042-.04-.041-.043-.042-.041-.041-.04-.042-.04-.04-.043-.04-.042-.04-.041-.043-.041-.041-.04-.038-.043-.04-.042-.04-.04-.041-.041-.041-.041-.041-.041-.041-.04-.042-.043-.04-.042-.04-.04-.04-.041-.041-.041-.041-.04-.042-.043-.04-.04-.042-.04-.041-.043-.041-.041-.041-.041-.039-.043-.039-.04-.044-.04-.041-.041-.041-.04-.04-.041-.04-.042-.04-.043-.04-.042-.04-.041-.043-.041-.041-.041-.03-.093l-.04.002-.042.001-.04.001-.044.002-.04.003-.041.002-.041.007c-.014 0-.026.002-.041.004-.014 0-.028.003-.043.004l-.041.004c-.012 0-.026.003-.04.005l-.042.005-.04.006c-.015 0-.027.004-.044.006l-.04.007-.042.006c-.014.003-.025.007-.04.009l-.04.008-.041.008-.041.009-.041.01a.424.424 0 0 0-.041.01l-.041.01-.04.01-.044.012c-.015.004-.027.007-.04.012a1.877 1.877 0 0 1-.042.012l-.04.013a.57.57 0 0 0-.042.012l-.042.014-.041.014a.426.426 0 0 0-.041.015l-.041.015-.041.015-.041.016-.043.016-.04.018c-.016.005-.027.01-.042.017l-.04.018-.042.019c-.015.006-.026.013-.04.019-.015.006-.026.013-.041.02l-.041.02-.041.022-.041.021c-.015.008-.026.015-.043.022l-.041.022c-.015.007-.026.015-.041.023-.015.007-.026.016-.04.023l-.042.024-.04.025c-.016.008-.027.017-.042.025l-.04.027-.044.027-.041.027-.041.028-.041.03-.041.03-.041.03-.041.03-.04.033-.042.032c-.014.01-.027.022-.04.033-.015.01-.029.021-.042.034l-.04.037-.044.037c-.014.012-.025.024-.04.036l-.04.039a.807.807 0 0 0-.083.08c-.014.012-.027.027-.041.04-.016.014-.027.028-.041.043-.016.015-.027.03-.041.043l-.04.045a.428.428 0 0 0-.042.047c-.016.015-.029.03-.043.047a2.724 2.724 0 0 1-.082.1l-.04.051-.041.055-.041.055-.041.058c-.014.02-.026.04-.041.06-.014.02-.026.042-.041.062-.016.022-.028.043-.041.064-.016.022-.028.045-.04.067-.017.024-.029.047-.044.07l-.04.073c-.015.024-.028.05-.043.076l-.042.08c-.016.028-.026.056-.04.084-.017.03-.028.059-.041.09-.016.031-.026.063-.041.095-.016.034-.028.068-.041.103-.016.037-.028.074-.041.11-.016.041-.028.082-.041.123-.016.043-.028.09-.043.134-.014.05-.026.102-.041.152-.016.06-.028.122-.04.183a4.35 4.35 0 0 0-.089.881v4.493H31.583l.04.001h.041l.042.002.04.002.041.002.041.002.043.002.04.002.026.002.016.001.04.002.042.003.04.003.041.003.041.005.041.005.041.004.043.006.04.005.042.005.04.007.042.007.04.008c.016.002.027.006.042.008l.04.008c.015.004.028.008.043.01l.041.01.041.011.041.01.041.013a.454.454 0 0 1 .041.012l.04.013.042.014c.015.004.026.01.043.014l.04.015.042.016.04.017c.015.006.029.011.041.018.014.006.026.012.043.018a.46.46 0 0 0 .041.019c.014.006.026.014.041.02l.041.022.041.021c.014.007.026.016.041.022l.04.025.042.025.04.027.042.027c.014.01.026.02.043.03l.04.03.041.034c.014.01.026.022.04.035.015.01.027.023.041.036.015.012.027.026.041.039.015.013.027.026.041.04l.041.044c.015.016.029.03.043.047.015.016.027.033.04.05.016.018.028.035.042.053.015.021.029.04.04.06.016.021.028.042.042.064a.708.708 0 0 1 .04.071.859.859 0 0 1 .041.081c.017.03.03.062.041.095.017.038.03.075.043.114a1.858 1.858 0 0 1 .082.4c.006.068.011.138.011.21a2.243 2.243 0 0 1-.052.449c-.012.05-.024.1-.04.148-.015.04-.027.077-.044.114-.012.032-.024.064-.04.096a1.011 1.011 0 0 1-.041.083.898.898 0 0 1-.041.073l-.041.067a.505.505 0 0 1-.041.06c-.014.02-.026.038-.041.057-.014.017-.026.034-.041.051-.014.017-.026.033-.043.048a.546.546 0 0 1-.04.046l-.042.043-.04.04c-.015.014-.027.026-.042.038l-.04.038c-.015.01-.027.021-.04.032l-.041.033-.043.03-.041.029c-.015.008-.027.018-.041.026-.013.01-.027.018-.041.027l-.041.023c-.015.008-.027.017-.041.024l-.04.021c-.016.007-.028.015-.042.022l-.04.02-.042.022c-.015.006-.026.012-.043.018a.802.802 0 0 1-.04.019l-.041.018c-.015.005-.026.012-.041.016l-.041.017-.043.014c-.015.004-.026.01-.041.014a.27.27 0 0 0-.04.014l-.042.013-.04.012-.042.012c-.015.002-.026.006-.04.01l-.042.01-.042.01-.041.01-.041.008a.485.485 0 0 0-.041.007l-.041.007-.038.006v.05l.039.004.04.002.042.004.04.004.041.004.043.006.041.005.041.007.041.007a.245.245 0 0 1 .041.008l.041.006.041.009.04.008c.017.003.028.005.044.01.013.003.025.005.04.01.015.002.028.006.042.01.014.002.027.006.04.01l.041.011c.014.005.027.007.043.013l.041.013.041.013c.012.004.025.009.041.013.014.006.027.01.041.014.014.005.027.012.04.016l.042.014c.014.007.027.011.04.018l.042.017.04.019.044.018.04.02.041.02.041.022c.014.006.025.014.041.021l.04.023c.015.008.026.015.042.022a.44.44 0 0 0 .041.025c.014.006.027.017.04.025.017.008.028.018.042.025l.043.028.04.03c.015.008.028.02.042.03l.04.03c.015.014.027.022.041.036.014.01.027.021.041.035l.041.036c.014.014.027.028.041.04.016.016.03.027.043.042l.041.045c.016.017.027.032.041.048l.04.05c.017.02.028.038.042.057.016.02.028.037.04.058.017.021.029.045.042.064.016.021.028.047.04.069.016.025.029.054.044.08.013.03.025.062.04.093.016.034.028.07.041.107.016.044.028.09.041.137a2.018 2.018 0 0 1 0 .978c-.013.048-.025.096-.04.143-.014.038-.026.075-.042.111-.015.032-.025.063-.04.096-.014.027-.028.055-.043.081-.013.026-.025.05-.041.073-.013.022-.025.046-.041.068-.013.02-.025.04-.041.06l-.041.058c-.014.019-.025.035-.041.054l-.041.048c-.014.018-.027.03-.04.046-.015.017-.028.029-.044.044a.773.773 0 0 1-.04.041c-.015.014-.026.025-.042.038a.58.58 0 0 1-.082.07c-.013.014-.026.022-.04.034a.533.533 0 0 1-.041.031c-.014.013-.027.022-.041.032-.014.01-.027.02-.043.028a.143.143 0 0 1-.041.026c-.014.009-.025.02-.041.024-.014.01-.027.02-.04.026-.015.008-.028.016-.044.023a.173.173 0 0 1-.039.021c-.016.008-.027.017-.04.023-.015.006-.028.015-.042.021-.016.008-.027.016-.04.022-.016.006-.027.014-.041.02-.016.006-.027.012-.043.02a.626.626 0 0 0-.041.019l-.041.018-.041.018-.041.016c-.014.004-.027.012-.04.016l-.042.015-.04.014-.042.006-.04.013c-.017.004-.028.01-.044.012a.743.743 0 0 0-.04.013l-.041.01c-.014.004-.027.006-.041.011l-.041.01-.043.009c-.014.002-.025.008-.041.01a.368.368 0 0 0-.041.008l-.04.006-.042.008-.04.006-.042.006-.04.008-.044.004c-.014.002-.024.004-.04.004-.014.002-.025.004-.041.004l-.041-.001-.041.004-.041.002-.041.002-.057.006c-.014.002-.026.002-.043.002-.014 0-.026 0-.04.002h-.042-.04-.02-.02-.041-.041-.041-.041-.041-.041-.041-.04-.042-.043-.04-.042-.04-.04-.04-.041-.041-.041-.041-.04-.042-.043-.04-.04-.042-.04-.041-.043-.041-.041-.041-.041-.039-.043-.039-.04-.044-.04-.041-.041-.041-.04-.04-.041-.04-.042-.04-.043-.04-.042-.04-.041-.043-.041-.041-.041-.041-.04-.042-.04-.042-.04-.041-.041-.043-.041-.041-.041-.041-.041-.038-.04-.042-.04-.041-.041-.041-.041-.043-.041-.04-.04-.04-.042-.04-.042-.043-.042-.04-.04-.042-.041-.041-.041-.04-.042-.04-.042-.04-.042-.04-.04-.04-.041-.044-.04-.041-.04-.04-.043-.04-.042-.042-.041-.043-.041-.041-.04-.04-.041-.04-.042-.04-.042-.04-.041-.041-.041-.041-.041-.041-.04-.042-.04-.044-.04-.04-.04-.04-.041-.041-.041-.041-.041-.041-.043-.039H26h-.042-.043-.04-.041-.041-.041-.042-.041-.039-.043-.087v8.82H31.828l.04-.002h.042c.015 0 .029 0 .043-.002.013 0 .027 0 .04-.003l.042-.002.04-.002.041-.004c.015-.002.03-.002.041-.006l.041-.002.041-.006c.015 0 .026-.002.043-.004.013-.002.026-.004.04-.004l.042-.008.04-.006.042-.006a.724.724 0 0 0 .082-.016l.04-.008.043-.01c.015-.003.026-.005.041-.01.015-.001.026-.005.041-.01l.041-.01.041-.01.041-.012c.015-.002.026-.006.04-.011l.042-.012c.015-.005.026-.007.043-.014l.04-.012.042-.012.04-.014a.329.329 0 0 1 .041-.014c.014-.005.026-.012.043-.016l.041-.017.041-.014a.555.555 0 0 1 .041-.018c.014-.004.026-.01.041-.017l.041-.02c.014-.003.026-.01.04-.016.015-.006.027-.013.042-.02l.04-.02.042-.02.043-.02a.555.555 0 0 1 .04-.019c.014-.008.026-.016.041-.021a.374.374 0 0 1 .041-.021c.014-.008.026-.017.04-.022a.291.291 0 0 1 .041-.021c.015-.01.027-.018.041-.022l.041-.023c.015-.007.029-.016.043-.024l.04-.022c.016-.008.028-.02.042-.024.015-.009.027-.019.04-.026.016-.008.028-.018.042-.025a5.06 5.06 0 0 1 .04-.028c.016-.008.028-.018.041-.026.015-.008.027-.02.041-.028.015-.01.027-.02.043-.028a.395.395 0 0 1 .041-.03c.015-.01.027-.021.041-.03.015-.011.027-.02.041-.033.015-.01.027-.021.041-.031.015-.013.029-.021.043-.033a.478.478 0 0 1 .04-.033c.014-.013.027-.023.042-.035l.04-.036a.648.648 0 0 0 .042-.037c.015-.012.025-.024.04-.038l.041-.04.041-.039.041-.04c.015-.016.027-.03.041-.043l.041-.042c.015-.017.027-.03.043-.044a.259.259 0 0 1 .04-.046c.016-.018.028-.031.042-.05.015-.016.027-.031.04-.047l.042-.05.04-.053.042-.054.04-.057a1.11 1.11 0 0 1 .043-.058c.014-.02.025-.04.041-.06.014-.02.025-.04.041-.062.014-.022.025-.042.041-.063l.041-.065.041-.07c.014-.022.025-.047.04-.07.015-.024.026-.05.042-.075.014-.024.027-.052.04-.078l.042-.084.04-.087c.016-.032.027-.063.042-.095.014-.032.026-.066.042-.102.014-.036.025-.07.04-.106.015-.04.028-.079.04-.118.016-.042.03-.088.041-.133.016-.047.03-.097.041-.148.016-.058.029-.114.041-.173.018-.07.029-.145.043-.217a4.443 4.443 0 0 0 .059-.713V1.013h-.018zm-4.815 14.385c-.012-.05-.022-.095-.04-.143a1.157 1.157 0 0 0-.042-.098c-.014-.025-.024-.054-.04-.08-.014-.02-.024-.043-.041-.064-.014-.02-.027-.04-.041-.058-.014-.016-.024-.034-.041-.05-.014-.016-.026-.032-.041-.046-.014-.014-.026-.028-.043-.04-.014-.014-.026-.023-.041-.037-.014-.01-.026-.022-.041-.032l-.04-.03c-.015-.008-.027-.02-.042-.026-.014-.009-.026-.017-.04-.022-.017-.01-.027-.018-.042-.022-.016-.006-.026-.014-.043-.02l-.04-.02c-.015-.005-.026-.012-.041-.016l-.041-.017c-.014-.002-.026-.008-.041-.012l-.041-.01-.018-.004a.557.557 0 0 1-.105-.017l-.04-.002c-.015-.002-.027-.004-.042-.004-.014-.003-.028-.003-.04-.005-.017 0-.029 0-.042-.002h-.008-.033-.04-.047-.043-.041-.041-.041-.041-.04-.042-.04-.042-.039-.042-.041-.041-.041-.04-.041-.041-.041-.04-.042-.04-.042-.04-.041-.041-.043-.041-.041-.04-.04-.04-.042-.04-.042-.04-.042-.042-.04-.041-.041-.041-.043-.04-.042-.04-.042-.04-.04-.04-.041-.041-.041-.044-.04-.041-.04-.04-.02v2.288H30.06c.013 0 .025-.003.041-.003l.041-.004.041-.002.041-.004.041-.006a1.312 1.312 0 0 0 .064-.012l.018-.004c.015-.002.025-.006.04-.01l.042-.013c.015-.004.027-.011.04-.015.016-.006.027-.01.042-.018l.04-.018a.678.678 0 0 1 .043-.021c.015-.008.025-.014.041-.021a.61.61 0 0 1 .041-.024c.015-.008.027-.018.041-.026.015-.008.027-.02.041-.029.015-.01.027-.021.04-.031l.042-.036.043-.041.04-.044a1.38 1.38 0 0 0 .083-.111c.017-.022.027-.044.04-.064.017-.026.027-.052.041-.078a.813.813 0 0 0 .041-.101c.02-.046.03-.092.041-.143a1.188 1.188 0 0 0 0-.532zm-.282-3.454a.739.739 0 0 0-.041-.142c-.014-.033-.024-.065-.041-.097a.739.739 0 0 0-.041-.075l-.04-.063-.042-.054-.04-.047c-.015-.015-.027-.028-.042-.041l-.04-.038c-.015-.012-.027-.023-.044-.033a.36.36 0 0 0-.04-.031c-.014-.01-.026-.02-.041-.028l-.041-.024c-.014-.007-.026-.015-.041-.021a.31.31 0 0 0-.041-.02c-.014-.007-.026-.014-.041-.019l-.041-.015-.04-.014c-.017-.004-.029-.009-.044-.011-.014-.005-.026-.009-.04-.01a.233.233 0 0 0-.04-.01l-.012-.002-.03-.004-.04-.004a.512.512 0 0 0-.041-.004l-.041-.003-.041-.002h-.025-.016-.041-.041-.043-.04-.042-.04-.043-.043-.04-.041-.041-.041-.043-.041-.04-.042-.04-.042-.043-.04-.041-.041-.041-.041-.043-.041-.041-.04-.042-.04-.044-.04-.042-.04-.041-.037-.041-.041-.043-.04-.04-.04-.044-.042-.04-.041-.041-.041-.041-.043-.041-.041-.041-.04-.022v2.106H27.597v.003H29.86l.042-.002.04-.004c.015 0 .027-.002.042-.005.015 0 .027-.002.04-.004a.33.33 0 0 1 .03-.004l.011-.002.04-.008a.416.416 0 0 0 .041-.01l.043-.012c.015-.004.027-.01.041-.014l.04-.016c.016-.006.028-.01.042-.017.015-.006.027-.014.04-.02.016-.007.028-.015.042-.022.015-.007.027-.016.04-.024.016-.008.028-.017.042-.027a.318.318 0 0 0 .04-.03 1.472 1.472 0 0 0 .084-.07l.041-.043c.015-.014.027-.03.041-.047.015-.017.027-.035.041-.054.015-.02.027-.041.041-.063a.79.79 0 0 0 .04-.075.665.665 0 0 0 .042-.096.773.773 0 0 0 .04-.142c.016-.077.026-.159.026-.243 0-.086-.006-.167-.025-.243z"/></svg></svg>