<svg width="49" height="30" xmlns="http://www.w3.org/2000/svg" xmlns:xlink="http://www.w3.org/1999/xlink" xmlns:svgjs="http://svgjs.com/svgjs" viewBox="0 0.203 49 29.594" fill="#fff"><svg xmlns="http://www.w3.org/2000/svg" width="49" height="30" viewBox="1.99 2 48.015 28.999"><path paint-order="stroke fill markers" fill-rule="evenodd" d="M48.965 24.314a.419.419 0 0 0-.176-.174.463.463 0 0 0-.227-.062.463.463 0 0 0-.228.062.473.473 0 0 0-.002.813.47.47 0 0 0 .461 0 .475.475 0 0 0 .172-.64zm-.244.406h-.101l-.062-.154h-.06v.154h-.082v-.392h.163c.02 0 .06.001.101.022.021.02.04.06.04.098 0 .043-.019.084-.06.102l.06.17zm-.121-.312c0-.008-.04-.008-.062-.008h-.04v.101h.061s.021 0 .04-.008c.022-.009.022-.028.022-.046 0-.015 0-.03-.021-.039zM35.634 2c-3.711 0-7.092 1.42-9.64 3.748a14.247 14.247 0 0 0-9.634-3.745h-.093C8.377 2.055 1.99 8.529 1.99 16.499c0 8.002 6.438 14.495 14.37 14.495 3.705 0 7.083-1.418 9.633-3.746a14.286 14.286 0 0 1-1.469-1.584h2.968a14.468 14.468 0 0 1-1.46 1.553h-.002v.002l-.036.03A14.242 14.242 0 0 0 35.64 31c7.937-.002 14.367-6.495 14.365-14.499v-.007C50.003 8.488 43.567 2 35.634 2zM24.687 7.246h2.73c.405.491.78 1.01 1.116 1.552h-4.87c.31-.519.656-1.05 1.024-1.552zm-1.875 3.075h6.548c.235.503.441 1.022.62 1.554h-7.945c.079-.15.356-.754.777-1.554zm-7.242 9.654h-1.705l1.015-5.37-2.335 5.37h-1.542l-.285-5.334-1.015 5.334H8.159l1.32-6.982h2.661l.122 4.324 1.889-4.324h2.762l-1.343 6.982zm6.032-3.017l-.366 2.017-.06.36-.04.289-.022.194-.02.154h-1.42l.04-.587c-.425.468-1.015.685-1.786.685-.914 0-1.544-.633-1.544-1.55 0-1.381 1.097-2.19 2.985-2.19.182 0 .426.018.69.045.04-.187.06-.265.06-.37 0-.374-.304-.514-1.096-.514-.487 0-1.036.059-1.4.157l-.244.062-.142.037.223-1.28c.853-.217 1.4-.298 2.03-.298 1.462 0 2.234.577 2.234 1.665 0 .282-.02.493-.122 1.124zm3.393-2.803c1.4 0 2.294.804 2.294 2.063 0 .42-.061.828-.205 1.404h-3.37c-.02.087-.02.126-.02.18 0 .657.508.992 1.482.992.61 0 1.158-.11 1.767-.36l-.284 1.422a6.538 6.538 0 0 1-1.726.23c-1.908 0-2.904-.874-2.904-2.547 0-1.947 1.26-3.382 2.966-3.384zm3.556 10.018h-5.099c-.31-.5-.6-1.013-.848-1.552h6.784a14.538 14.538 0 0 1-.837 1.552zm3.124-8.573a11.362 11.362 0 0 0-1.24-.083c-.548 0-.832.156-.832.46 0 .267.081.33.792.619.872.345 1.219.802 1.219 1.581 0 1.296-.833 1.895-2.661 1.895-.222 0-.527-.017-.933-.047a4.226 4.226 0 0 1-.468-.052l-.305-.056-.08-.016.243-1.31a5.388 5.388 0 0 0 1.544.224c.67 0 .974-.158.974-.512 0-.26-.102-.344-.792-.627-.913-.371-1.32-.867-1.32-1.583 0-1.05.67-1.922 2.58-1.922.407 0 1.077.05 1.522.112l-.243 1.317zm2.662 3.104c.182 0 .323-.018.445-.055l-.223 1.26c-.467.129-.832.186-1.218.186-.874 0-1.34-.443-1.34-1.248 0-.16.02-.33.04-.51l.102-.559.08-.45.793-4.335H34.7l-.243 1.304h.873l-.244 1.382h-.874l-.446 2.37c-.02.102-.02.18-.02.233 0 .295.183.42.591.422zm4.153-2.81c-.812 0-1.075.61-1.684 4.084H35.1l1.036-5.68h1.543l-.162.862c.528-.671.933-.924 1.482-.924.061 0 .123.007.183.015 0 .003.063.014.145.034.02.005.04.005.182.062l-.606 1.605-.204-.042a1.62 1.62 0 0 0-.209-.015zm3.013 4.233c-1.933 0-2.702-1.178-2.702-2.619 0-2.011 1.32-3.376 3.35-3.376 1.768 0 2.702 1.122 2.702 2.562 0 .353 0 .377-.04.707-.265 1.889-1.565 2.728-3.31 2.726zm3.492-.152a.448.448 0 0 1-.447-.445.447.447 0 0 1 .894 0 .447.447 0 0 1-.447.445zm0-.781a.346.346 0 0 0-.345.336c0 .19.163.34.345.34a.33.33 0 0 0 .325-.34.33.33 0 0 0-.325-.336zm.162.534h-.102l-.062-.153h-.061v.153h-.082v-.393h.163c.022 0 .062.002.103.023.02.019.04.058.04.098 0 .042-.02.084-.06.102l.06.17zm-.122-.313c0-.009-.04-.009-.06-.009h-.042v.101h.061s.02 0 .04-.008c.022-.01.022-.028.022-.045 0-.015 0-.031-.021-.04zm-20.06-3.958c-.55 0-.935.36-1.098 1.019l1.89.004v-.294c0-.461-.285-.73-.793-.73zm-5.505 1.967c-.953-.001-1.44.29-1.44.864 0 .353.223.58.608.58.69 0 1.178-.583 1.218-1.423a3.163 3.163 0 0 0-.386-.021zm22.641-1.902c-.874 0-1.401 1.035-1.401 1.947 0 .772.365 1.29.975 1.278.366 0 1.157-.51 1.3-1.392.04-.207.06-.434.06-.681 0-.592-.243-1.154-.934-1.152z"/></svg></svg>