<svg width="25" height="20" xmlns="http://www.w3.org/2000/svg" xmlns:xlink="http://www.w3.org/1999/xlink" xmlns:svgjs="http://svgjs.com/svgjs" viewBox="0 0.417 25 19.167" fill="#fba93d"><svg xmlns="http://www.w3.org/2000/svg" width="25" height="20" viewBox="2 1.3 24 18.4"><path paint-order="stroke fill markers" fill-rule="evenodd" d="M23.89 1.3H4.11A2.12 2.12 0 0 0 2 3.423v14.154A2.12 2.12 0 0 0 4.11 19.7h19.78A2.12 2.12 0 0 0 26 17.577V3.423A2.12 2.12 0 0 0 23.89 1.3zm-.29 1.415l-9.555 9.617-9.638-9.617H23.6zM3.405 17.284V3.709l6.773 6.758-6.773 6.817zm.995 1l6.776-6.82 2.375 2.37a.7.7 0 0 0 .992-.003l2.315-2.33 6.74 6.783H4.401zm20.193-1l-6.74-6.784 6.74-6.784v13.568z"/></svg></svg>