<svg width="51" height="15" xmlns="http://www.w3.org/2000/svg" xmlns:xlink="http://www.w3.org/1999/xlink" xmlns:svgjs="http://svgjs.com/svgjs" viewBox="0 0.378 51 14.244" fill="#fff"><svg xmlns="http://www.w3.org/2000/svg" width="51" height="15" viewBox="2.044 1.019 49.963 13.955"><path paint-order="stroke fill markers" fill-rule="evenodd" d="M10.999 3.292a2.066 2.066 0 0 0-.744-.827 3.415 3.415 0 0 0-1.182-.448c-.46-.086-.991-.125-1.607-.13l-2.842.001a.717.717 0 0 0-.654.536l-1.912 8.592c-.069.29.116.534.412.534h1.36a.701.701 0 0 0 .654-.534L4.95 8.93a.702.702 0 0 1 .653-.533h.39c1.663-.002 2.952-.353 3.878-1.055.93-.704 1.39-1.633 1.39-2.785-.002-.504-.082-.927-.262-1.265zM8.064 6.1c-.412.311-.984.466-1.72.466H6.01c-.296 0-.478-.241-.413-.535l.41-1.825a.694.694 0 0 1 .647-.533L7.1 3.67c.52 0 .918.093 1.184.272.262.179.394.462.392.837.008.57-.203 1.01-.612 1.32zm41.728-3.54l-.085.026-.114.017-.14-.023-.071-.071-.033-.113-.002-.168v-.625h.455v-.194h-.455v-.39h-.225v.39h-.152v.194h.152v.727l.105.36.31.114.13-.01.137-.029V2.56h-.012zm2.11-1.051l-.325-.138-.24.05-.243.17-.142-.163-.23-.056-.221.05-.21.139v-.152h-.22v1.366h.22v-1.02l.185-.119.185-.047.15.028.075.079.032.13.011.17v.78h.221V1.9l-.004-.072-.004-.067.189-.123.186-.048.146.027.079.079.028.132.015.166v.78h.222V1.89l-.105-.381zM17.561 4.52c-.513-.298-1.324-.448-2.432-.448-.548 0-1.095.045-1.647.132-.407.065-.447.077-.697.133-.518.117-.6.65-.6.65l-.166.706c-.094.451.158.434.263.396.226-.07.352-.141.814-.247.44-.104.906-.181 1.274-.177.545 0 .96.06 1.238.18.274.123.41.334.41.639l-.023.198-.196.125c-.772.05-1.33.124-2.007.225-.662.095-1.243.262-1.726.49-.518.235-.903.55-1.172.953-.26.404-.389.894-.389 1.468 0 .541.188.988.554 1.334.368.34.853.505 1.434.505.368-.002.652-.032.855-.082l.659-.234.558-.32.513-.349.007.01-.051.225-.003.01v.002c-.056.274.105.499.363.525l.005.006h1.264l.018-.008a.712.712 0 0 0 .586-.525l.992-4.431.051-.362.024-.338c.004-.628-.259-1.093-.773-1.39zm-2.194 4.982l-.213.29-.535.284c-.252.106-.49.159-.711.159-.335 0-.598-.05-.776-.153l-.262-.526c0-.286.063-.512.199-.686l.577-.405c.247-.085.548-.158.897-.208.311-.04.926-.112 1.006-.114l.094.17a60.5 60.5 0 0 1-.276 1.19zm26.911-4.976c-.516-.298-1.326-.449-2.431-.449-.548 0-1.095.044-1.645.135-.409.062-.45.075-.701.13-.516.116-.597.65-.597.65l-.166.707c-.093.45.152.43.267.395.227-.07.35-.138.807-.248.44-.103.908-.178 1.278-.176.542 0 .958.06 1.235.18.275.123.41.336.41.638l-.02.197-.195.128c-.78.048-1.339.122-2.009.223-.66.095-1.243.26-1.727.49-.516.236-.906.552-1.171.955-.263.404-.39.892-.39 1.462 0 .545.186.992.556 1.336.37.338.85.508 1.432.508.365-.004.65-.029.853-.083l.657-.231.563-.319.51-.354.009.012-.047.226-.005.005.002.004c-.061.274.1.5.362.526l.002.004H41.379l.021-.007a.704.704 0 0 0 .58-.53l.994-4.424.053-.363.029-.34c0-.626-.26-1.09-.778-1.387zM40.09 9.51l-.221.291-.53.283a1.876 1.876 0 0 1-.71.16c-.345 0-.6-.052-.773-.154l-.266-.525c0-.286.065-.51.195-.687.131-.167.333-.304.582-.404a4.95 4.95 0 0 1 .896-.208c.31-.04.922-.114 1.001-.116l.097.171c-.014.097-.19.847-.271 1.189zm-4.377-6.185a2.147 2.147 0 0 0-.75-.83 3.274 3.274 0 0 0-1.182-.448 9.033 9.033 0 0 0-1.6-.13l-2.846.003a.712.712 0 0 0-.65.533l-1.913 8.597c-.07.291.12.532.41.532l1.363-.002c.29.002.586-.237.654-.531l.461-2.088c.067-.29.36-.534.654-.532h.39c1.666 0 2.957-.354 3.887-1.054.919-.71 1.384-1.637 1.384-2.79-.005-.501-.09-.926-.262-1.26zm-2.935 2.811c-.41.305-.983.46-1.717.46h-.338c-.293.003-.482-.242-.417-.535l.413-1.82c.06-.292.355-.537.65-.534l.44-.003c.524.003.917.092 1.184.272.267.18.393.462.396.837.003.57-.202 1.01-.61 1.323zm14.604-3.614c.062-.294-.116-.532-.409-.528h-1.219c-.25 0-.474.192-.584.427l-.068.108-.061.278-1.704 7.991-.056.246.002.006c-.056.263.1.461.342.499l.021.03h1.266c.248 0 .48-.195.587-.434l.065-.102 1.822-8.52-.004-.001zM26.808 4.18c-.322.004-1.631 0-1.631 0-.293 0-.67.244-.856.535 0 0-1.949 3.451-2.138 3.798l-.226-.003-.607-3.77c-.067-.297-.368-.55-.741-.55l-1.22.001c-.293 0-.473.242-.407.536 0 0 .926 5.435 1.111 6.715.087.705-.01.831-.01.831l-1.206 2.166c-.178.294-.082.534.21.534l1.41-.002c.293 0 .679-.238.853-.533l5.422-9.462c0 .001.521-.807.036-.796z"/></svg></svg>