<svg width="49" height="16" xmlns="http://www.w3.org/2000/svg" xmlns:xlink="http://www.w3.org/1999/xlink" xmlns:svgjs="http://svgjs.com/svgjs" viewBox="0 0.359 49 15.281" fill="#fff"><svg xmlns="http://www.w3.org/2000/svg" width="49" height="16" viewBox="1.003 1.014 47.993 14.967"><path paint-order="stroke fill markers" fill-rule="evenodd" d="M20.22 1.263l-2.44 14.5h3.902l2.44-14.5H20.22zm-5.71.016l-3.82 9.89-.408-1.494c-.754-1.799-2.893-4.382-5.404-6.01L8.37 15.756l4.128-.007 6.144-14.473-4.133.002zM8.8 2.317c-.226-.883-.883-1.146-1.699-1.178H1.053l-.05.29c4.707 1.155 7.82 3.943 9.113 7.294L8.801 2.317zM32.03 4.043a7.126 7.126 0 0 1 2.92.555l.352.168.528-3.143c-.773-.294-1.984-.609-3.495-.609-3.855 0-6.572 1.967-6.593 4.786-.025 2.082 1.936 3.245 3.416 3.94 1.52.71 2.03 1.163 2.023 1.799-.012.97-1.212 1.415-2.333 1.415-1.562 0-2.392-.218-3.673-.759l-.502-.232-.55 3.246c.914.406 2.598.754 4.347.772 4.1 0 6.766-1.943 6.794-4.955.017-1.647-1.024-2.905-3.278-3.937-1.365-.672-2.2-1.12-2.191-1.799 0-.602.708-1.247 2.235-1.247zm13.81-2.764h-3.013c-.936 0-1.633.259-2.044 1.204l-5.792 13.29h4.096s.669-1.788.82-2.18l4.996.007c.116.506.475 2.172.475 2.172h3.62L45.84 1.28zm-4.81 9.347c.321-.833 1.554-4.053 1.554-4.053-.021.04.318-.838.52-1.384l.263 1.25.904 4.187h-3.241z"/></svg></svg>